<svg width="1920" height="1080" viewBox="0 0 1920 1080" fill="none" xmlns="http://www.w3.org/2000/svg">
<g clip-path="url(#clip0_38_5)">
<path d="M2199.15 693.743C2896.43 1297.76 1501.87 1297.76 2199.15 693.743ZM2199.15 693.743C2199.15 89.727 2896.43 1297.76 2199.15 693.743ZM2199.15 693.743C2199.15 89.727 1501.87 1297.76 2199.15 693.743Z" stroke="#CBE9E4" stroke-width="0.43" stroke-miterlimit="10"/>
<path d="M2170.89 637.88C2865.46 1148.46 1476.31 1270.04 2170.89 637.88ZM2170.89 637.88C2065.6 5.71805 2865.46 1148.46 2170.89 637.88ZM2170.89 637.88C2065.6 5.71805 1476.31 1270.04 2170.89 637.88Z" stroke="#CBE9E4" stroke-width="0.43" stroke-miterlimit="10"/>
<path d="M2136.41 586.945C2823.1 1000.15 1449.72 1242.39 2136.41 586.945ZM2136.41 586.945C1926.7 -68.4983 2823.1 1000.15 2136.41 586.945ZM2136.41 586.945C1926.7 -68.4983 1449.72 1242.39 2136.41 586.945Z" stroke="#CBE9E4" stroke-width="0.43" stroke-miterlimit="10"/>
<path d="M2096.02 541.307C2769.54 854.001 1422.5 1215.04 2096.02 541.307ZM2096.02 541.307C1783.43 -132.429 2769.54 854.001 2096.02 541.307ZM2096.02 541.307C1783.43 -132.429 1422.5 1215.04 2096.02 541.307Z" stroke="#CBE9E4" stroke-width="0.43" stroke-miterlimit="10"/>
<path d="M2050.09 501.335C2705.32 711.111 1394.86 1188.25 2050.09 501.335ZM2050.09 501.335C1637.01 -185.581 2705.32 711.111 2050.09 501.335ZM2050.09 501.335C1637.01 -185.581 1394.86 1188.25 2050.09 501.335Z" stroke="#CBE9E4" stroke-width="0.43" stroke-miterlimit="10"/>
<path d="M1998.8 467.275C2630.76 572.595 1366.84 1162.07 1998.8 467.275ZM1998.8 467.275C1488.38 -227.524 2630.76 572.595 1998.8 467.275ZM1998.8 467.275C1488.38 -227.524 1366.84 1162.07 1998.8 467.275Z" stroke="#CBE9E4" stroke-width="0.43" stroke-miterlimit="10"/>
<path d="M1942.71 439.437C2546.53 439.437 1338.89 1136.95 1942.71 439.437ZM1942.71 439.437C1338.89 -258.073 2546.53 439.437 1942.71 439.437ZM1942.71 439.437C1338.89 -258.073 1338.89 1136.95 1942.71 439.437Z" stroke="#CBE9E4" stroke-width="0.43" stroke-miterlimit="10"/>
<path d="M1851.71 418.065C2483.67 312.745 1341.29 1112.86 1851.71 418.065ZM1851.71 418.065C1219.75 -276.735 2483.67 312.745 1851.71 418.065ZM1851.71 418.065C1219.75 -276.735 1341.29 1112.86 1851.71 418.065Z" stroke="#CBE9E4" stroke-width="0.43" stroke-miterlimit="10"/>
<path d="M1757.01 403.221C2412.24 193.445 1343.94 1090.14 1757.01 403.221ZM1757.01 403.221C1101.78 -283.695 2412.24 193.445 1757.01 403.221ZM1757.01 403.221C1101.78 -283.695 1343.94 1090.14 1757.01 403.221Z" stroke="#CBE9E4" stroke-width="0.43" stroke-miterlimit="10"/>
<path d="M1659.3 395.153C2332.82 82.4594 1346.71 1068.89 1659.3 395.153ZM1659.3 395.153C985.785 -278.583 2332.82 82.4594 1659.3 395.153ZM1659.3 395.153C985.785 -278.583 1346.71 1068.89 1659.3 395.153Z" stroke="#CBE9E4" stroke-width="0.43" stroke-miterlimit="10"/>
<path d="M1559.25 393.798C2245.94 -19.4108 1349.54 1049.24 1559.25 393.798ZM1559.25 393.798C872.557 -261.645 2245.94 -19.4108 1559.25 393.798ZM1559.25 393.798C872.557 -261.645 1349.54 1049.24 1559.25 393.798Z" stroke="#CBE9E4" stroke-width="0.43" stroke-miterlimit="10"/>
<path d="M1457.66 399.218C2152.23 -111.365 1352.37 1031.38 1457.66 399.218ZM1457.66 399.218C763.085 -232.944 2152.23 -111.365 1457.66 399.218ZM1457.66 399.218C763.085 -232.944 1352.37 1031.38 1457.66 399.218Z" stroke="#CBE9E4" stroke-width="0.43" stroke-miterlimit="10"/>
<path d="M1355.39 411.351C2052.67 -192.664 1355.39 1015.37 1355.39 411.351ZM1355.39 411.351C2052.67 -192.664 658.108 -192.664 1355.39 411.351ZM1355.39 411.351C658.108 -192.664 1355.39 1015.37 1355.39 411.351Z" stroke="#CBE9E4" stroke-width="0.43" stroke-miterlimit="10"/>
<path d="M1253.06 399.772C1947.63 -232.39 1358.35 1031.93 1253.06 399.772ZM1253.06 399.772C1947.63 -232.39 558.487 -110.811 1253.06 399.772ZM1253.06 399.772C558.487 -110.811 1358.35 1031.93 1253.06 399.772Z" stroke="#CBE9E4" stroke-width="0.43" stroke-miterlimit="10"/>
<path d="M1151.59 394.845C1838.29 -260.598 1361.3 1050.29 1151.59 394.845ZM1151.59 394.845C1838.29 -260.598 464.9 -18.3639 1151.59 394.845ZM1151.59 394.845C464.9 -18.3639 1361.3 1050.29 1151.59 394.845Z" stroke="#CBE9E4" stroke-width="0.43" stroke-miterlimit="10"/>
<path d="M1051.66 396.754C1725.18 -276.981 1364.26 1070.49 1051.66 396.754ZM1051.66 396.754C1725.18 -276.981 378.148 84.0607 1051.66 396.754ZM1051.66 396.754C378.148 84.0607 1364.26 1070.49 1051.66 396.754Z" stroke="#CBE9E4" stroke-width="0.43" stroke-miterlimit="10"/>
<path d="M954.076 405.377C1609.31 -281.539 1367.15 1092.29 954.076 405.377ZM954.076 405.377C1609.31 -281.539 298.845 195.601 954.076 405.377ZM954.076 405.377C298.845 195.601 1367.15 1092.29 954.076 405.377Z" stroke="#CBE9E4" stroke-width="0.43" stroke-miterlimit="10"/>
<path d="M859.566 420.713C1491.52 -274.087 1369.98 1115.51 859.566 420.713ZM859.566 420.713C1491.52 -274.087 227.609 315.394 859.566 420.713ZM859.566 420.713C227.609 315.394 1369.98 1115.51 859.566 420.713Z" stroke="#CBE9E4" stroke-width="0.43" stroke-miterlimit="10"/>
<path d="M768.873 442.578C1372.69 -254.932 1372.69 1140.09 768.873 442.578ZM768.873 442.578C1372.69 -254.932 165.054 442.577 768.873 442.578ZM768.873 442.578C165.054 442.577 1372.69 1140.09 768.873 442.578Z" stroke="#CBE9E4" stroke-width="0.43" stroke-miterlimit="10"/>
<path d="M713.028 470.847C1223.45 -223.952 1344.99 1165.65 713.028 470.847ZM713.028 470.847C1223.45 -223.952 81.0715 576.167 713.028 470.847ZM713.028 470.847C81.0715 576.167 1344.99 1165.65 713.028 470.847Z" stroke="#CBE9E4" stroke-width="0.43" stroke-miterlimit="10"/>
<path d="M662.11 505.338C1075.18 -181.578 1317.34 1192.25 662.11 505.338ZM662.11 505.338C1075.18 -181.578 6.87958 715.114 662.11 505.338ZM662.11 505.338C6.87958 715.114 1317.34 1192.25 662.11 505.338Z" stroke="#CBE9E4" stroke-width="0.43" stroke-miterlimit="10"/>
<path d="M616.548 545.741C929.14 -127.994 1290.06 1219.48 616.548 545.741ZM616.548 545.741C929.14 -127.994 -56.9689 858.435 616.548 545.741ZM616.548 545.741C-56.9689 858.435 1290.06 1219.48 616.548 545.741Z" stroke="#CBE9E4" stroke-width="0.43" stroke-miterlimit="10"/>
<path d="M576.527 591.688C786.235 -63.7559 1263.22 1247.13 576.527 591.688ZM576.527 591.688C786.235 -63.7559 -110.166 1004.9 576.527 591.688ZM576.527 591.688C-110.166 1004.9 1263.22 1247.13 576.527 591.688Z" stroke="#CBE9E4" stroke-width="0.43" stroke-miterlimit="10"/>
<path d="M542.54 642.992C647.826 10.8299 1237.11 1275.15 542.54 642.992ZM542.54 642.992C647.826 10.8299 -152.033 1153.58 542.54 642.992ZM542.54 642.992C-152.033 1153.58 1237.11 1275.15 542.54 642.992Z" stroke="#CBE9E4" stroke-width="0.43" stroke-miterlimit="10"/>
<path d="M514.711 699.101C514.711 95.0852 1211.99 1303.12 514.711 699.101ZM514.711 699.101C514.711 95.0852 -182.572 1303.12 514.711 699.101ZM514.711 699.101C1211.99 1303.12 -182.572 1303.12 514.711 699.101Z" stroke="#CBE9E4" stroke-width="0.43" stroke-miterlimit="10"/>
<path d="M493.346 790.131C388.061 157.969 1187.92 1300.71 493.346 790.131ZM493.346 790.131C388.061 157.969 -201.228 1422.29 493.346 790.131ZM493.346 790.131C1187.92 1300.71 -201.228 1422.29 493.346 790.131Z" stroke="#CBE9E4" stroke-width="0.43" stroke-miterlimit="10"/>
<path d="M478.507 884.857C268.799 229.414 1165.2 1298.07 478.507 884.857ZM478.507 884.857C268.799 229.414 -208.185 1540.3 478.507 884.857ZM478.507 884.857C1165.2 1298.07 -208.185 1540.3 478.507 884.857Z" stroke="#CBE9E4" stroke-width="0.43" stroke-miterlimit="10"/>
<path d="M470.38 982.601C157.788 308.865 1143.9 1295.29 470.38 982.601ZM470.38 982.601C157.788 308.865 -203.137 1656.34 470.38 982.601ZM470.38 982.601C1143.9 1295.29 -203.137 1656.34 470.38 982.601Z" stroke="#CBE9E4" stroke-width="0.43" stroke-miterlimit="10"/>
<path d="M469.087 1082.68C56.0127 395.769 1124.32 1292.46 469.087 1082.68ZM469.087 1082.68C56.0127 395.769 -186.143 1769.6 469.087 1082.68ZM469.087 1082.68C1124.32 1292.46 -186.143 1769.6 469.087 1082.68Z" stroke="#CBE9E4" stroke-width="0.43" stroke-miterlimit="10"/>
<path d="M474.506 1184.31C-35.9117 489.509 1106.46 1289.63 474.506 1184.31ZM474.506 1184.31C-35.9117 489.509 -157.451 1879.11 474.506 1184.31ZM474.506 1184.31C1106.46 1289.63 -157.451 1879.11 474.506 1184.31Z" stroke="#CBE9E4" stroke-width="0.43" stroke-miterlimit="10"/>
<path d="M486.635 1286.61C-117.184 589.101 1090.45 1286.61 486.635 1286.61ZM486.635 1286.61C-117.184 589.101 -117.184 1984.12 486.635 1286.61ZM486.635 1286.61C1090.45 1286.61 -117.184 1984.12 486.635 1286.61Z" stroke="#CBE9E4" stroke-width="0.43" stroke-miterlimit="10"/>
<path d="M474.998 1388.97C-156.959 694.174 1106.95 1283.65 474.998 1388.97ZM474.998 1388.97C-156.959 694.174 -35.4193 2083.77 474.998 1388.97ZM474.998 1388.97C1106.95 1283.65 -35.4193 2083.77 474.998 1388.97Z" stroke="#CBE9E4" stroke-width="0.43" stroke-miterlimit="10"/>
<path d="M1363.52 2606.12C1963.7 2606.12 2683.65 1816.53 2683.65 1279.59C2683.65 742.645 1951.76 -39.1197 1363.58 -39.1198" stroke="#CBE9E4" stroke-width="0.43" stroke-miterlimit="10"/>
<path d="M1363.58 -39.1198C775.338 -39.1198 33.3545 768.698 33.3545 1285.81" stroke="#CBE9E4" stroke-width="0.43" stroke-miterlimit="10"/>
</g>
<defs>
<clipPath id="clip0_38_5">
<rect width="1920" height="1080" fill="white"/>
</clipPath>
</defs>
</svg>
