<svg width="1920" height="3582" viewBox="0 0 1920 3582" fill="none" xmlns="http://www.w3.org/2000/svg">
<g clip-path="url(#clip0_32_437)">
<path d="M1904.85 1503.59C1972.08 1829.83 1506.67 2076.83 1336.92 2334.64C1167.17 2592.45 1124.32 3117.62 798.08 3184.86C471.844 3252.09 224.835 2786.68 -32.9755 2616.93C-290.785 2447.18 -815.928 2404.26 -883.187 2078.09C-950.421 1751.85 -485.011 1504.84 -315.261 1247.03C-145.512 989.223 -102.655 464.057 223.581 396.822C549.817 329.588 796.826 794.999 1054.64 964.748C1312.45 1134.5 1837.59 1177.42 1904.85 1503.59Z" stroke="#CBE9E4" stroke-width="0.31" stroke-miterlimit="10"/>
<path d="M1899.6 1479.29C1972.49 1804.3 1511.48 2059.39 1346.27 2320.16C1181.05 2580.92 1147.33 3106.7 822.295 3179.65C497.286 3252.53 242.194 2791.53 -18.5711 2626.31C-279.336 2461.1 -805.113 2427.37 -878 2102.37C-950.886 1777.36 -489.88 1522.26 -324.668 1261.5C-159.456 1000.73 -125.729 474.958 199.304 402.009C524.313 329.123 779.405 790.129 1040.17 955.341C1300.94 1120.55 1826.71 1154.28 1899.6 1479.29Z" stroke="#CBE9E4" stroke-width="0.31" stroke-miterlimit="10"/>
<path d="M1893.95 1455.12C1972.53 1778.77 1516.02 2041.91 1355.39 2305.51C1194.76 2569.1 1170.19 3095.43 846.529 3174.02C522.871 3252.6 259.733 2796.09 -3.86292 2635.46C-267.459 2474.83 -793.784 2450.26 -872.309 2126.62C-950.895 1802.97 -494.38 1539.83 -333.752 1276.23C-173.124 1012.64 -148.551 486.31 175.107 407.724C498.766 329.138 761.903 785.653 1025.5 946.281C1289.1 1106.91 1815.42 1131.48 1893.95 1455.12Z" stroke="#CBE9E4" stroke-width="0.31" stroke-miterlimit="10"/>
<path d="M1887.91 1431.01C1972.07 1753.27 1520.24 2024.32 1364.31 2290.64C1208.38 2556.97 1192.94 3083.7 870.683 3167.86C548.423 3252.02 277.44 2800.22 11.0503 2644.26C-255.339 2488.3 -782.003 2472.89 -866.166 2150.63C-950.329 1828.37 -498.499 1557.32 -342.565 1291C-186.545 1024.63 -171.197 497.943 151.063 413.781C473.323 329.618 744.307 781.425 1010.7 937.382C1277.06 1093.4 1803.75 1108.75 1887.91 1431.01Z" stroke="#CBE9E4" stroke-width="0.31" stroke-miterlimit="10"/>
<path d="M1881.39 1407.07C1971.18 1727.81 1524.2 2006.68 1372.84 2275.7C1221.48 2544.71 1215.34 3071.61 894.6 3161.4C573.861 3251.18 294.985 2804.21 25.973 2652.85C-243.062 2501.55 -769.943 2495.35 -859.729 2174.61C-949.515 1853.87 -502.542 1574.99 -351.178 1305.98C-199.815 1036.97 -193.678 510.066 127.061 420.28C447.799 330.494 726.676 777.467 995.688 928.831C1264.72 1080.13 1791.6 1086.33 1881.39 1407.07Z" stroke="#CBE9E4" stroke-width="0.31" stroke-miterlimit="10"/>
<path d="M1874.49 1383.2C1969.86 1702.33 1527.77 1988.97 1381.14 2260.59C1234.52 2532.21 1237.54 3059.1 918.412 3154.47C599.28 3249.84 312.696 2807.77 40.9909 2661.19C-230.629 2514.57 -757.515 2517.59 -852.888 2198.46C-948.26 1879.33 -506.167 1592.68 -359.545 1321.06C-212.923 1049.44 -215.945 522.556 103.187 427.183C422.318 331.811 708.903 773.88 980.608 920.464C1252.31 1067.05 1779.11 1064.06 1874.49 1383.2Z" stroke="#CBE9E4" stroke-width="0.31" stroke-miterlimit="10"/>
<path d="M1867.18 1359.45C1968.12 1676.83 1531.08 1971.17 1389.29 2245.36C1247.43 2519.52 1259.66 3046.27 942.22 3147.19C624.843 3248.13 330.479 2811.15 56.3132 2669.3C-217.853 2527.44 -744.575 2539.61 -845.519 2222.23C-946.462 1904.85 -509.421 1610.51 -367.626 1336.32C-225.77 1062.16 -237.998 535.411 79.4406 434.491C396.817 333.547 691.181 770.526 965.347 912.383C1239.51 1054.24 1766.24 1042.07 1867.18 1359.45Z" stroke="#CBE9E4" stroke-width="0.31" stroke-miterlimit="10"/>
<path d="M1859.44 1335.89C1965.9 1651.49 1534.1 1953.39 1397.06 2229.98C1260.02 2506.56 1281.37 3033 965.838 3139.48C650.24 3245.93 348.343 2814.14 71.7548 2677.09C-204.834 2540.05 -731.268 2561.41 -837.721 2245.81C-944.175 1930.21 -512.38 1628.31 -375.337 1351.73C-238.293 1075.14 -259.652 548.703 55.8844 442.226C371.483 335.772 673.379 767.567 949.967 904.61C1226.56 1041.65 1752.99 1020.3 1859.44 1335.89Z" stroke="#CBE9E4" stroke-width="0.31" stroke-miterlimit="10"/>
<path d="M1851.27 1312.38C1963.22 1626.05 1536.75 1935.47 1404.55 2214.42C1272.34 2493.37 1302.9 3019.3 989.204 3131.31C675.531 3243.26 366.117 2816.8 87.2294 2684.62C-191.72 2552.41 -717.657 2582.97 -829.668 2269.27C-941.617 1955.6 -515.155 1646.19 -382.948 1367.24C-250.741 1088.29 -281.302 562.352 32.3943 450.341C346.067 338.392 655.481 764.854 934.369 897.037C1213.32 1029.24 1739.25 998.683 1851.27 1312.38Z" stroke="#CBE9E4" stroke-width="0.31" stroke-miterlimit="10"/>
<path d="M1842.72 1289.08C1960.13 1600.74 1539.13 1917.51 1411.85 2198.78C1284.53 2479.97 1324.31 3005.35 1012.57 3122.79C700.905 3240.2 384.134 2819.2 102.861 2691.92C-178.325 2564.6 -703.703 2604.38 -821.148 2292.64C-938.555 1980.98 -517.558 1664.2 -390.274 1382.93C-262.989 1101.66 -302.738 576.368 9.00867 458.923C320.67 341.515 637.441 762.512 918.713 889.797C1199.9 1017.12 1725.28 977.333 1842.72 1289.08Z" stroke="#CBE9E4" stroke-width="0.31" stroke-miterlimit="10"/>
<path d="M1833.78 1265.91C1956.6 1575.47 1541.22 1899.59 1418.8 2182.95C1296.45 2466.33 1345.33 2990.96 1035.76 3113.78C726.198 3236.61 402.084 2821.23 118.698 2698.87C-164.688 2576.52 -689.25 2625.42 -812.115 2315.77C-934.942 2006.21 -519.558 1682.09 -397.143 1398.73C-274.729 1115.37 -323.666 590.721 -14.1015 467.894C295.463 345.067 619.577 760.451 902.963 882.804C1186.35 1005.16 1710.91 956.258 1833.78 1265.91Z" stroke="#CBE9E4" stroke-width="0.31" stroke-miterlimit="10"/>
<path d="M1824.4 1242.93C1952.61 1550.31 1542.97 1881.6 1425.55 2167.1C1308.13 2452.6 1366.19 2976.22 1058.78 3104.49C751.401 3232.7 420.106 2823.06 134.606 2705.64C-150.894 2588.22 -674.517 2646.28 -802.726 2338.9C-930.935 2031.52 -521.296 1700.22 -403.875 1414.72C-286.455 1129.22 -344.513 605.601 -37.1076 477.331C270.274 349.122 601.569 758.76 887.069 876.181C1172.57 993.601 1696.19 935.543 1824.4 1242.93Z" stroke="#CBE9E4" stroke-width="0.31" stroke-miterlimit="10"/>
<path d="M1814.62 1220.07C1948.17 1525.18 1544.33 1863.54 1431.95 2151.05C1319.51 2438.54 1386.71 2961.08 1081.57 3094.69C776.461 3228.24 438.085 2824.46 150.595 2712.02C-136.895 2599.58 -659.431 2666.78 -792.984 2361.67C-926.537 2056.56 -522.692 1718.2 -410.313 1430.69C-297.872 1143.2 -365.076 620.663 -59.9381 487.049C245.176 353.496 583.552 757.279 871.042 869.72C1158.53 982.161 1681.07 914.957 1814.62 1220.07Z" stroke="#CBE9E4" stroke-width="0.31" stroke-miterlimit="10"/>
<path d="M1804.5 1197.37C1943.36 1500.13 1545.48 1845.46 1438.1 2134.9C1330.73 2424.35 1407 2945.63 1104.3 3084.51C801.541 3223.37 456.183 2825.55 166.827 2718.13C-122.554 2610.78 -643.894 2687.03 -782.753 2384.27C-921.612 2081.51 -523.731 1736.18 -416.356 1446.74C-308.98 1157.29 -385.253 636.015 -82.5549 497.132C220.205 358.274 565.563 756.092 854.92 863.506C1144.3 970.858 1665.64 894.608 1804.5 1197.37Z" stroke="#CBE9E4" stroke-width="0.31" stroke-miterlimit="10"/>
<path d="M1793.93 1174.92C1938.08 1475.18 1546.25 1827.45 1443.98 2118.73C1341.66 2409.97 1427.05 2929.87 1126.79 3074.02C826.531 3218.17 474.23 2826.4 183.044 2724.1C-108.204 2621.78 -628.101 2707.17 -772.251 2406.91C-916.402 2106.65 -524.571 1754.37 -422.309 1463.1C-320.046 1171.83 -405.375 651.956 -105.115 507.806C195.144 363.655 547.445 755.423 838.631 857.724C1129.88 960.049 1649.77 874.658 1793.93 1174.92Z" stroke="#CBE9E4" stroke-width="0.31" stroke-miterlimit="10"/>
<path d="M1782.95 1152.59C1932.33 1450.33 1546.71 1809.33 1449.52 2102.34C1352.27 2395.33 1446.72 2913.61 1149.05 3063.02C851.317 3212.4 492.295 2826.84 199.305 2729.59C-93.6859 2632.34 -611.969 2726.79 -761.373 2429.12C-910.754 2131.39 -525.131 1772.39 -427.943 1479.38C-330.693 1186.38 -425.148 668.102 -127.476 518.698C170.258 369.317 529.28 754.878 822.27 852.128C1115.26 949.377 1633.54 854.922 1782.95 1152.59Z" stroke="#CBE9E4" stroke-width="0.31" stroke-miterlimit="10"/>
<path d="M1771.67 1130.51C1926.2 1425.55 1546.93 1791.25 1454.84 2085.95C1362.78 2380.58 1466.26 2897.16 1171.16 3051.68C876.122 3206.21 510.418 2826.94 215.784 2734.88C-78.85 2642.81 -595.433 2746.29 -749.944 2451.19C-904.479 2156.15 -525.21 1790.45 -433.121 1495.75C-341.032 1201.06 -444.538 684.538 -149.5 530.003C145.539 375.468 511.243 754.737 805.877 846.802C1100.51 938.868 1617.09 835.385 1771.6 1130.49L1771.67 1130.51Z" stroke="#CBE9E4" stroke-width="0.31" stroke-miterlimit="10"/>
<path d="M1759.96 1108.61C1919.58 1400.93 1546.78 1773.24 1459.86 2069.43C1372.94 2365.63 1485.37 2880.34 1193.12 3039.99C900.799 3199.62 528.551 2826.84 232.359 2739.92C-63.8332 2653 -578.545 2765.43 -738.196 2473.17C-897.823 2180.86 -525.019 1808.55 -438.1 1512.35C-351.181 1216.16 -463.614 701.45 -171.357 541.799C120.962 382.172 493.21 754.952 789.402 841.871C1085.59 928.79 1600.31 816.357 1759.96 1108.61Z" stroke="#CBE9E4" stroke-width="0.31" stroke-miterlimit="10"/>
<path d="M1747.82 1086.91C1912.59 1376.38 1546.32 1755.11 1464.51 2052.78C1382.76 2350.47 1504.21 2863.12 1214.74 3027.89C925.262 3192.66 546.531 2826.39 248.867 2744.58C-48.8215 2662.83 -561.477 2784.28 -726.22 2494.75C-890.987 2205.27 -524.718 1826.54 -442.907 1528.88C-361.158 1231.19 -482.614 718.532 -193.139 553.765C96.3364 388.998 475.068 755.267 772.732 837.078C1070.42 918.827 1583.08 797.371 1747.82 1086.91Z" stroke="#CBE9E4" stroke-width="0.31" stroke-miterlimit="10"/>
<path d="M1735.38 1065.44C1905.16 1352.02 1545.54 1737.08 1469 2036.14C1392.47 2335.2 1522.85 2845.69 1236.29 3015.41C949.707 3185.19 564.655 2825.57 265.594 2749.04C-33.4667 2672.51 -543.957 2802.88 -713.678 2516.32C-883.461 2229.74 -523.837 1844.69 -447.306 1545.63C-370.775 1246.57 -501.153 736.076 -214.593 566.355C71.9915 396.571 457.044 756.195 756.105 832.727C1055.17 909.258 1565.66 778.879 1735.38 1065.44Z" stroke="#CBE9E4" stroke-width="0.31" stroke-miterlimit="10"/>
<path d="M1722.51 1044.16C1897.23 1327.68 1544.42 1718.98 1473.07 2019.33C1401.72 2319.68 1541.03 2827.79 1257.48 3002.58C973.962 3177.3 582.664 2824.49 282.317 2753.14C-18.0311 2681.79 -526.146 2821.1 -700.846 2537.52C-875.57 2253.99 -522.762 1862.7 -451.41 1562.35C-380.059 1262 -519.37 753.887 -235.824 579.101C47.6985 404.377 438.996 757.185 739.344 828.537C1039.69 899.888 1547.81 760.577 1722.51 1044.16Z" stroke="#CBE9E4" stroke-width="0.31" stroke-miterlimit="10"/>
<path d="M1709.33 1023.12C1889 1303.58 1543.05 1701 1476.99 2002.54C1410.93 2304.07 1559.07 2809.7 1278.61 2989.37C998.151 3169.03 600.731 2823.08 299.196 2757.02C-2.33878 2690.96 -507.97 2839.1 -687.61 2558.58C-867.274 2278.12 -521.33 1880.7 -455.268 1579.17C-389.205 1277.63 -537.349 772.001 -256.889 592.337C23.5715 412.673 420.991 758.617 722.526 824.68C1024.06 890.742 1529.69 742.598 1709.33 1023.12Z" stroke="#CBE9E4" stroke-width="0.31" stroke-miterlimit="10"/>
<path d="M1695.71 1002.33C1880.21 1279.62 1541.26 1683 1480.45 1985.64C1419.64 2288.27 1576.6 2791.27 1299.31 2975.78C1022.03 3160.28 618.646 2821.33 316.009 2760.52C13.3728 2699.71 -489.626 2856.67 -674.131 2579.39C-858.636 2302.1 -519.689 1898.72 -458.878 1596.08C-398.066 1293.44 -555.029 790.444 -277.74 605.939C-0.451346 421.434 402.929 760.382 705.565 821.193C1008.2 882.004 1511.2 725.042 1695.71 1002.33Z" stroke="#CBE9E4" stroke-width="0.31" stroke-miterlimit="10"/>
<path d="M1681.78 981.779C1871.08 1255.81 1539.24 1665.05 1483.73 1968.67C1428.19 2272.34 1593.92 2772.48 1319.89 2961.79C1045.86 3151.09 636.618 2819.25 333.004 2763.74C29.389 2708.23 -470.808 2873.93 -660.115 2599.9C-849.423 2325.87 -517.582 1916.63 -462.069 1613.01C-406.533 1309.34 -572.262 809.201 -298.23 619.893C-24.1986 430.586 385.042 762.427 688.657 817.94C992.272 873.452 1492.47 707.747 1681.78 981.779Z" stroke="#CBE9E4" stroke-width="0.31" stroke-miterlimit="10"/>
<path d="M1667.48 961.44C1861.55 1232.13 1536.86 1647.11 1486.67 1951.64C1436.46 2256.23 1610.92 2753.42 1340.23 2947.49C1069.54 3141.56 654.624 2816.9 350.031 2766.68C45.4384 2716.47 -451.722 2890.87 -645.819 2620.24C-839.891 2349.55 -515.204 1934.57 -465.014 1630.04C-414.862 1325.42 -589.257 828.262 -318.569 634.19C-47.8796 440.117 367.037 764.781 671.63 814.995C976.222 865.208 1473.38 690.813 1667.48 961.44Z" stroke="#CBE9E4" stroke-width="0.31" stroke-miterlimit="10"/>
<path d="M1652.86 941.401C1851.65 1208.66 1534.19 1629.19 1489.32 1934.64C1444.48 2240.02 1627.51 2734.13 1360.24 2932.93C1092.98 3131.73 672.43 2814.32 367.069 2769.42C61.683 2724.58 -432.419 2907.6 -631.218 2640.34C-830.017 2373.08 -512.555 1952.55 -467.688 1647.1C-422.821 1341.65 -605.869 847.614 -338.608 648.815C-71.3471 450.015 349.207 767.416 654.569 812.321C959.93 857.226 1454.06 674.14 1652.86 941.401Z" stroke="#CBE9E4" stroke-width="0.31" stroke-miterlimit="10"/>
<path d="M1637.86 921.575C1841.29 1185.3 1531.26 1611.39 1491.75 1917.48C1452.22 2223.64 1643.88 2714.47 1380.16 2917.9C1116.43 3121.32 690.404 2811.32 384.249 2771.78C78.0941 2732.25 -412.739 2923.91 -616.142 2660.13C-819.568 2396.4 -509.54 1970.31 -470.029 1664.22C-430.494 1358.06 -622.156 867.232 -358.433 663.805C-94.7103 460.379 331.319 770.383 637.474 809.918C943.629 849.453 1434.44 657.852 1637.86 921.575Z" stroke="#CBE9E4" stroke-width="0.31" stroke-miterlimit="10"/>
<path d="M1622.48 902.025C1830.48 1162.19 1527.91 1593.57 1493.74 1900.37C1459.56 2207.17 1659.78 2694.56 1399.62 2902.55C1139.46 3110.55 708.077 2807.99 401.277 2773.81C94.4767 2739.63 -392.893 2939.79 -600.908 2679.69C-808.924 2419.59 -506.34 1988.15 -472.161 1681.35C-437.897 1374.51 -638.122 887.116 -377.96 679.124C-117.798 471.132 313.584 773.693 620.384 807.872C927.184 842.05 1414.55 641.887 1622.57 901.987L1622.48 902.025Z" stroke="#CBE9E4" stroke-width="0.31" stroke-miterlimit="10"/>
<path d="M1606.84 882.798C1819.36 1139.31 1524.37 1575.89 1495.51 1883.25C1466.68 2190.54 1675.36 2674.39 1418.91 2886.93C1162.4 3099.45 725.822 2804.47 418.524 2775.63C111.226 2746.79 -372.618 2955.48 -585.138 2698.97C-797.657 2442.45 -502.674 2005.88 -473.813 1698.52C-445.014 1391.13 -653.726 907.352 -397.211 694.833C-140.696 482.314 295.877 777.297 603.175 806.134C910.473 834.971 1394.32 626.283 1606.84 882.798Z" stroke="#CBE9E4" stroke-width="0.31" stroke-miterlimit="10"/>
<path d="M1590.82 863.784C1807.77 1116.54 1520.41 1558.18 1496.98 1866C1473.55 2173.82 1690.62 2653.95 1437.89 2870.83C1185.13 3087.78 743.487 2800.42 435.667 2776.99C127.846 2753.55 -352.216 2970.65 -569.162 2717.89C-786.109 2465.14 -498.751 2023.5 -475.318 1715.68C-451.823 1407.88 -668.983 927.794 -416.225 710.847C-163.466 493.9 278.174 781.258 585.994 804.691C893.814 828.124 1373.88 611.026 1590.82 863.784Z" stroke="#CBE9E4" stroke-width="0.31" stroke-miterlimit="10"/>
<path d="M1574.48 845.07C1795.82 1093.99 1516.19 1540.59 1498.15 1848.79C1480.04 2156.96 1705.49 2633.22 1456.6 2854.49C1207.68 3075.83 761.075 2796.2 452.881 2778.16C144.71 2760.05 -331.546 2985.5 -552.821 2736.61C-774.158 2487.69 -494.533 2041.08 -476.49 1732.89C-458.408 1424.78 -683.855 948.524 -434.939 727.188C-186.023 505.851 260.585 785.475 568.78 803.519C876.951 821.624 1353.21 596.177 1574.48 845.07Z" stroke="#CBE9E4" stroke-width="0.31" stroke-miterlimit="10"/>
<path d="M1557.81 826.655C1783.41 1071.68 1511.66 1523.1 1498.99 1831.52C1486.32 2139.94 1720.04 2612.22 1475.01 2837.82C1229.99 3063.42 778.55 2791.73 470.152 2779C161.754 2766.27 -310.525 2999.99 -536.151 2755.02C-761.754 2510 -489.997 2058.58 -477.329 1750.16C-464.661 1441.74 -698.381 969.46 -453.354 743.858C-208.327 518.255 243.11 789.95 551.508 802.68C859.93 815.348 1332.19 581.69 1557.81 826.655Z" stroke="#CBE9E4" stroke-width="0.31" stroke-miterlimit="10"/>
<path d="M1540.81 808.539C1770.65 1049.59 1506.87 1505.71 1499.53 1814.27C1492.2 2122.84 1734.18 2590.99 1493.13 2820.82C1252.12 3050.74 795.959 2786.87 487.395 2779.54C178.832 2772.21 -289.323 3014.19 -519.154 2773.14C-748.985 2532.09 -485.205 2075.97 -477.874 1767.4C-470.605 1458.82 -712.522 990.686 -471.47 760.855C-230.457 530.939 225.701 794.804 534.265 802.135C842.829 809.466 1310.98 567.487 1540.81 808.539Z" stroke="#CBE9E4" stroke-width="0.31" stroke-miterlimit="10"/>
<path d="M1523.51 790.66C1757.53 1027.65 1501.72 1488.33 1499.81 1797C1497.9 2105.66 1747.94 2569.48 1511.01 2803.52C1274.02 3037.54 813.34 2781.72 504.672 2779.82C196.005 2777.91 -267.807 3027.95 -501.828 2790.96C-735.849 2553.97 -480.032 2093.29 -478.124 1784.62C-476.216 1475.95 -726.278 1012.2 -489.325 778.096C-252.334 544.075 208.345 799.892 517.012 801.8C825.656 803.769 1289.49 553.67 1523.51 790.66Z" stroke="#CBE9E4" stroke-width="0.31" stroke-miterlimit="10"/>
<path d="M1505.92 773.166C1744.09 1006.01 1496.31 1471.06 1499.79 1779.75C1503.26 2088.43 1761.41 2547.78 1528.5 2785.93C1295.66 3024.1 830.606 2776.32 521.92 2779.8C213.235 2783.27 -246.11 3041.42 -484.259 2808.51C-722.433 2575.67 -474.649 2110.61 -478.126 1801.93C-481.542 1493.27 -739.663 1033.86 -506.843 795.75C-273.998 557.576 191.055 805.359 499.74 801.882C808.425 798.405 1267.77 540.26 1505.92 773.166Z" stroke="#CBE9E4" stroke-width="0.31" stroke-miterlimit="10"/>
<path d="M1488 755.972C1730.2 984.622 1490.56 1453.95 1499.41 1762.51C1508.26 2071.06 1774.39 2525.89 1545.7 2768.01C1317.05 3010.21 847.72 2770.57 539.164 2779.42C230.608 2788.27 -224.222 3054.4 -466.339 2825.71C-708.541 2597.06 -468.901 2127.73 -477.749 1819.17C-486.597 1510.62 -752.726 1055.79 -524.037 813.67C-295.387 571.468 173.94 811.108 482.496 802.26C791.052 793.412 1245.88 527.283 1488 755.972Z" stroke="#CBE9E4" stroke-width="0.31" stroke-miterlimit="10"/>
<path d="M1469.84 739.039C1715.94 963.448 1484.58 1436.89 1498.82 1745.25C1513.07 2053.62 1787.06 2503.68 1562.63 2749.85C1338.22 2995.95 864.783 2764.59 556.418 2778.83C248.053 2793.08 -202.007 3067.07 -448.176 2842.64C-694.283 2618.23 -462.92 2144.79 -477.163 1836.43C-491.344 1528.09 -765.318 1077.96 -540.97 831.833C-316.561 585.726 156.878 817.089 465.243 802.846C773.608 788.604 1223.67 514.606 1469.84 739.039Z" stroke="#CBE9E4" stroke-width="0.31" stroke-miterlimit="10"/>
<path d="M1451.32 722.466C1701.3 942.548 1478.19 1419.95 1497.82 1727.98C1517.42 2036.07 1799.25 2481.27 1579.2 2731.33C1359.12 2981.3 881.779 2758.23 573.69 2777.83C265.602 2797.43 -179.601 3079.26 -429.575 2859.17C-679.55 2639.09 -456.449 2161.69 -476.072 1853.66C-495.758 1545.61 -777.625 1100.32 -557.543 850.348C-337.461 600.374 139.881 823.451 447.97 803.851C756.058 784.252 1201.28 502.36 1451.32 722.466Z" stroke="#CBE9E4" stroke-width="0.31" stroke-miterlimit="10"/>
<path d="M1432.54 706.217C1686.34 921.886 1471.64 1403.09 1496.58 1710.76C1521.58 2018.45 1811.15 2458.68 1595.48 2712.49C1379.81 2966.29 898.6 2751.59 590.935 2776.53C283.247 2801.53 -156.99 3091.09 -410.77 2875.36C-664.574 2659.69 -449.869 2178.48 -474.811 1870.82C-499.924 1563.23 -789.461 1122.93 -573.792 869.13C-358.123 615.326 123.085 830.031 430.749 805.089C738.438 780.085 1178.67 490.524 1432.54 706.217Z" stroke="#CBE9E4" stroke-width="0.31" stroke-miterlimit="10"/>
<path d="M1413.43 690.266C1670.94 901.475 1464.68 1386.36 1495.05 1693.57C1525.42 2000.77 1822.61 2435.93 1611.4 2693.44C1400.19 2950.95 915.306 2744.69 608.104 2775.06C300.901 2805.43 -134.175 3102.58 -391.746 2891.35C-649.255 2680.14 -442.993 2195.25 -473.364 1888.05C-503.734 1580.85 -800.951 1145.75 -589.719 888.177C-378.51 630.668 106.378 836.93 413.581 806.559C720.759 776.251 1155.92 479.058 1413.43 690.266Z" stroke="#CBE9E4" stroke-width="0.31" stroke-miterlimit="10"/>
<path d="M1394.09 674.725C1655.27 881.388 1457.5 1369.83 1493.2 1676.46C1528.9 1983.09 1833.67 2412.95 1626.94 2674.1C1420.28 2935.28 931.837 2737.51 625.206 2773.21C318.575 2808.9 -111.278 3113.68 -372.432 2906.95C-633.609 2700.29 -435.838 2211.85 -471.537 1905.21C-507.236 1598.58 -811.947 1168.75 -605.284 907.577C-398.621 646.4 89.823 844.171 396.454 808.472C703.024 772.75 1132.94 468 1394.09 674.725Z" stroke="#CBE9E4" stroke-width="0.31" stroke-miterlimit="10"/>
<path d="M1374.49 659.506C1639.27 861.599 1450 1353.39 1491.08 1659.33C1532.15 1965.26 1844.32 2389.74 1642.22 2654.52C1440.13 2919.3 948.34 2730.03 642.403 2771.11C336.467 2812.18 -88.0062 3124.35 -352.789 2922.26C-617.573 2720.16 -428.302 2228.37 -469.377 1922.44C-510.428 1616.44 -822.657 1191.94 -620.503 927.182C-418.41 662.399 73.3821 851.669 379.319 810.594C685.255 769.519 1109.73 457.351 1374.49 659.506Z" stroke="#CBE9E4" stroke-width="0.31" stroke-miterlimit="10"/>
<path d="M1354.62 644.611C1622.82 842.063 1442.25 1337.06 1488.57 1642.26C1534.96 1947.48 1854.51 2366.42 1657.06 2634.63C1459.61 2902.83 964.605 2722.26 659.411 2768.58C354.255 2815 -64.7525 3134.52 -332.956 2937.07C-601.16 2739.62 -420.586 2244.61 -466.913 1939.42C-513.326 1634.26 -832.874 1215.32 -635.398 947.053C-437.922 678.787 57.055 859.424 362.249 813.096C667.405 766.683 1086.35 447.135 1354.62 644.611Z" stroke="#CBE9E4" stroke-width="0.31" stroke-miterlimit="10"/>
<path d="M643.698 373.719C975.306 404.831 1075.44 922.181 1272.38 1159.85C1469.32 1397.52 1959.06 1592.1 1927.95 1923.71C1896.84 2255.31 1379.49 2355.45 1141.82 2552.39C904.153 2749.33 709.594 3239.01 377.962 3207.96C46.3544 3176.85 -53.7811 2659.5 -250.72 2421.83C-447.658 2184.16 -937.402 1989.58 -906.29 1657.97C-875.178 1326.36 -357.828 1226.23 -120.16 1029.29C117.531 832.289 312.09 342.607 643.698 373.719Z" stroke="#CBE9E4" stroke-width="0.31" stroke-miterlimit="10"/>
<path d="M618.961 371.634C951.11 396.924 1060.17 912.465 1261.27 1146.7C1462.31 1380.91 1955.36 1566.91 1930.1 1898.99C1904.81 2231.14 1389.27 2340.21 1155.03 2541.31C920.798 2742.4 734.825 3235.4 402.7 3210.04C70.5508 3184.75 -38.512 2669.21 -239.612 2434.98C-440.65 2200.77 -933.703 2014.77 -908.437 1682.69C-883.147 1350.54 -367.606 1241.47 -133.371 1040.37C100.863 839.274 286.835 346.282 618.961 371.634Z" stroke="#CBE9E4" stroke-width="0.31" stroke-miterlimit="10"/>
<path d="M594.204 369.967C926.723 389.511 1044.81 902.996 1249.97 1133.69C1455.07 1364.36 1951.31 1541.72 1931.76 1874.24C1912.22 2206.76 1398.74 2324.84 1168.07 2529.94C937.4 2735.04 760.037 3231.28 427.518 3211.74C94.9992 3192.19 -23.0862 2678.71 -228.247 2448.02C-433.347 2217.35 -929.586 2039.98 -910.042 1707.47C-890.498 1374.95 -377.013 1256.86 -146.346 1051.76C84.3222 846.662 261.685 350.423 594.204 369.967Z" stroke="#CBE9E4" stroke-width="0.31" stroke-miterlimit="10"/>
<path d="M569.366 368.694C902.155 382.383 1029.2 893.787 1238.3 1120.89C1447.42 1347.93 1946.66 1516.59 1932.95 1849.44C1919.26 2182.23 1407.86 2309.27 1180.82 2518.4C953.779 2727.52 785.06 3226.73 452.294 3212.98C119.505 3199.3 -7.54126 2687.89 -216.64 2460.79C-425.74 2233.69 -925.003 2065.09 -911.315 1732.3C-897.626 1399.51 -386.221 1272.47 -159.182 1063.34C67.9191 854.246 236.576 355.006 569.366 368.694Z" stroke="#CBE9E4" stroke-width="0.31" stroke-miterlimit="10"/>
<path d="M544.547 367.926C877.521 375.797 1013.48 884.888 1226.54 1108.34C1439.56 1331.7 1941.68 1491.61 1933.78 1824.64C1925.91 2157.62 1416.82 2293.57 1193.43 2506.66C970.068 2719.68 810.102 3221.77 477.128 3213.9C144.154 3206.03 8.19888 2696.94 -204.862 2473.49C-417.885 2250.12 -920.002 2090.22 -912.107 1757.18C-904.236 1424.21 -395.144 1288.26 -171.757 1075.17C51.63 862.086 211.597 359.993 544.547 367.926Z" stroke="#CBE9E4" stroke-width="0.31" stroke-miterlimit="10"/>
<path d="M519.732 367.513C852.806 369.605 997.655 876.236 1214.52 1095.9C1431.38 1315.56 1936.25 1466.67 1934.16 1799.74C1932.06 2132.81 1425.43 2277.66 1205.83 2494.55C986.23 2711.43 835.064 3216.28 501.99 3214.19C168.917 3212.1 24.0675 2705.47 -192.794 2485.8C-409.741 2266.18 -914.525 2115.03 -912.434 1781.96C-910.342 1448.89 -403.711 1304.04 -184.109 1087.15C35.4929 870.268 186.659 365.422 519.732 367.513Z" stroke="#CBE9E4" stroke-width="0.31" stroke-miterlimit="10"/>
<path d="M494.874 367.581C827.923 363.846 981.567 867.907 1202.25 1083.72C1422.94 1299.54 1930.35 1441.83 1934.09 1774.88C1937.82 2107.93 1433.76 2261.58 1218.01 2482.29C1002.19 2702.97 859.897 3210.39 526.872 3214.06C193.823 3217.79 40.1788 2713.73 -180.507 2497.92C-401.192 2282.1 -908.607 2139.81 -912.342 1806.76C-916.078 1473.71 -412.016 1320.06 -196.262 1099.36C19.5549 878.67 161.849 371.255 494.874 367.581Z" stroke="#CBE9E4" stroke-width="0.31" stroke-miterlimit="10"/>
<path d="M469.997 368.067C802.937 358.542 965.323 859.801 1189.77 1071.75C1414.22 1283.69 1923.99 1417.11 1933.52 1750.04C1943.04 2082.98 1441.78 2245.37 1229.84 2469.82C1017.89 2694.27 884.479 3204.04 551.54 3213.56C218.601 3223.09 56.2142 2721.83 -168.233 2509.88C-392.681 2297.94 -902.455 2164.53 -911.98 1831.59C-921.504 1498.65 -420.245 1336.26 -208.3 1111.81C3.64569 887.366 137.058 377.592 469.997 368.067Z" stroke="#CBE9E4" stroke-width="0.31" stroke-miterlimit="10"/>
<path d="M445.224 369.019C777.93 353.658 949.083 852.052 1177.19 1060.02C1405.3 1267.98 1917.31 1392.47 1932.65 1725.23C1948.01 2057.94 1449.62 2229.09 1241.65 2457.2C1033.69 2685.31 909.142 3197.3 576.436 3212.66C243.73 3228.02 72.5775 2729.63 -155.533 2521.66C-383.643 2313.7 -895.652 2189.21 -910.99 1856.44C-926.351 1523.74 -427.957 1352.59 -219.992 1124.48C-12.0264 896.366 112.519 384.38 445.224 369.019Z" stroke="#CBE9E4" stroke-width="0.31" stroke-miterlimit="10"/>
<path d="M420.37 370.365C752.757 349.205 932.624 844.502 1164.27 1048.44C1395.98 1252.4 1910.08 1367.97 1931.24 1700.36C1952.4 2032.74 1457.13 2212.55 1253.17 2444.26C1049.21 2675.97 933.639 3190.07 601.252 3211.23C268.866 3232.39 88.9982 2737.09 -142.651 2533.15C-374.362 2329.19 -888.46 2213.62 -909.62 1881.24C-930.78 1548.85 -435.507 1369.04 -231.546 1137.33C-27.5846 905.623 87.9838 391.525 420.37 370.365Z" stroke="#CBE9E4" stroke-width="0.31" stroke-miterlimit="10"/>
<path d="M395.621 372.178C727.603 345.257 916.023 837.323 1151.3 1037.19C1386.57 1237.07 1902.57 1343.65 1929.55 1675.65C1956.54 2007.66 1464.41 2196.06 1264.56 2431.27C1064.65 2666.46 958.107 3182.54 626.125 3209.46C294.143 3236.38 105.723 2744.32 -129.55 2544.45C-364.739 2344.54 -880.825 2237.99 -907.807 1905.99C-934.79 1573.98 -442.662 1385.58 -242.815 1150.37C-42.9671 915.161 63.6388 399.099 395.621 372.178Z" stroke="#CBE9E4" stroke-width="0.31" stroke-miterlimit="10"/>
<path d="M370.852 374.408C702.305 341.679 899.326 830.391 1137.98 1026.1C1376.63 1221.81 1894.47 1319.38 1927.26 1650.86C1959.99 1982.31 1471.28 2179.33 1275.57 2417.99C1079.83 2656.7 982.286 3174.48 650.833 3207.21C319.379 3239.94 122.359 2751.23 -116.293 2555.52C-354.944 2359.81 -872.786 2262.23 -905.577 1930.76C-938.307 1599.3 -449.594 1402.28 -253.884 1163.63C-58.1502 924.917 39.3978 407.137 370.852 374.408Z" stroke="#CBE9E4" stroke-width="0.31" stroke-miterlimit="10"/>
<path d="M346.187 377.104C677.027 338.604 882.51 823.767 1124.6 1015.34C1366.63 1206.89 1886.13 1295.38 1924.63 1626.22C1963.13 1957.06 1477.96 2162.54 1286.39 2404.63C1094.84 2646.66 1006.35 3166.16 675.512 3204.66C344.672 3243.16 139.188 2758 -102.902 2566.42C-344.931 2374.87 -864.428 2286.38 -902.928 1955.54C-941.428 1624.7 -456.265 1419.22 -264.692 1177.13C-73.1433 935.101 15.3469 415.604 346.187 377.104Z" stroke="#CBE9E4" stroke-width="0.31" stroke-miterlimit="10"/>
<path d="M321.527 380.157C651.629 335.839 865.599 817.391 1110.97 1004.69C1356.34 1192 1877.19 1271.43 1921.51 1601.54C1965.83 1931.64 1484.28 2145.61 1296.98 2390.98C1109.67 2636.34 1030.24 3157.2 700.134 3201.52C370.031 3245.84 156.062 2764.29 -89.307 2576.98C-334.676 2389.68 -855.534 2310.25 -899.852 1980.14C-944.17 1650.04 -462.618 1436.07 -275.315 1190.7C-88.013 945.333 -8.57608 424.475 321.527 380.157Z" stroke="#CBE9E4" stroke-width="0.31" stroke-miterlimit="10"/>
<path d="M296.97 383.676C626.227 333.639 848.569 811.324 1097.15 994.332C1345.74 1177.34 1867.98 1247.66 1918.02 1576.92C1968.05 1906.17 1490.37 2128.52 1307.36 2377.1C1124.35 2625.69 1054.06 3147.87 724.776 3197.96C395.52 3248 173.177 2770.32 -75.4073 2587.31C-323.992 2404.3 -846.235 2333.98 -896.271 2004.72C-946.308 1675.47 -468.623 1453.12 -285.615 1204.54C-102.607 955.955 -32.3094 433.774 296.97 383.676Z" stroke="#CBE9E4" stroke-width="0.31" stroke-miterlimit="10"/>
<path d="M272.395 387.613C600.743 331.834 831.334 805.603 1083.1 984.231C1334.86 1162.86 1858.22 1224.03 1913.97 1552.44C1969.75 1880.79 1496.04 2111.4 1317.35 2363.14C1138.72 2614.91 1077.49 3138.24 749.142 3194.02C420.794 3249.8 190.203 2776.03 -61.5599 2597.4C-313.323 2418.77 -836.68 2357.6 -892.434 2029.19C-948.213 1700.84 -474.505 1470.23 -295.816 1218.49C-117.187 966.724 -55.9525 443.391 272.395 387.613Z" stroke="#CBE9E4" stroke-width="0.31" stroke-miterlimit="10"/>
<path d="M247.986 392.039C575.301 330.471 814.128 800.177 1069.01 974.402C1323.82 1148.6 1848.15 1200.64 1909.69 1528.02C1971.17 1855.37 1501.53 2094.22 1327.33 2349.04C1153.13 2603.86 1101.09 3128.18 773.713 3189.72C446.359 3251.21 207.509 2781.56 -47.3083 2607.36C-302.126 2433.16 -826.449 2381.12 -887.994 2053.75C-949.538 1726.37 -479.893 1487.52 -305.669 1232.64C-131.445 977.76 -79.3679 453.522 247.986 392.039Z" stroke="#CBE9E4" stroke-width="0.31" stroke-miterlimit="10"/>
</g>
<defs>
<clipPath id="clip0_32_437">
<rect width="2770.62" height="2770.62" fill="white" transform="translate(-283.567) rotate(21.0784)"/>
</clipPath>
</defs>
</svg>
