<svg width="1841" height="246" viewBox="0 0 1841 246" fill="none" xmlns="http://www.w3.org/2000/svg">
<g opacity="0.2" clip-path="url(#clip0_104_2)">
<path d="M1431.54 121.298C1245.36 240.911 981.026 11.4482 780.642 -32.1752C580.259 -75.7986 244.454 23.1017 124.822 -163.045C5.18968 -349.192 234.69 -613.483 278.32 -813.834C321.951 -1014.18 223.078 -1349.93 409.211 -1469.55C595.389 -1589.16 859.722 -1359.7 1060.11 -1316.07C1260.49 -1272.45 1596.29 -1371.35 1715.93 -1185.2C1835.56 -999.057 1606.06 -734.766 1562.43 -534.415C1518.8 -334.065 1617.67 1.68582 1431.54 121.298Z" stroke="#CBE9E4" stroke-width="0.31" stroke-miterlimit="10"/>
<path d="M1445.35 112.24C1261.28 235.062 992.989 10.2612 791.858 -29.8441C590.727 -69.9495 256.725 34.7553 133.838 -149.281C10.9957 -333.317 235.833 -601.565 275.945 -802.664C316.057 -1003.76 211.335 -1337.71 395.401 -1460.53C579.467 -1583.36 847.76 -1358.55 1048.89 -1318.45C1250.02 -1278.34 1584.02 -1383.05 1706.91 -1199.01C1829.75 -1014.98 1604.92 -746.727 1564.8 -545.629C1524.69 -344.53 1629.41 -10.583 1445.35 112.24Z" stroke="#CBE9E4" stroke-width="0.31" stroke-miterlimit="10"/>
<path d="M1458.98 102.961C1277.11 228.994 1004.91 8.89785 803.117 -27.6895C601.326 -64.2768 269.171 46.2327 143.118 -135.605C17.0647 -317.442 237.196 -589.604 273.79 -791.362C310.383 -993.12 199.855 -1325.22 381.722 -1451.21C563.589 -1577.24 835.796 -1357.15 1037.59 -1320.56C1239.38 -1283.97 1571.53 -1394.48 1697.59 -1212.64C1823.64 -1030.81 1603.51 -758.645 1566.91 -556.887C1530.32 -355.129 1640.85 -23.0281 1458.98 102.961Z" stroke="#CBE9E4" stroke-width="0.31" stroke-miterlimit="10"/>
<path d="M1472.48 93.4618C1292.82 222.617 1016.83 7.31442 814.465 -25.7109C612.102 -58.7363 281.883 57.5341 152.707 -122.104C23.5307 -301.743 238.868 -577.643 271.899 -780.017C304.93 -982.391 188.64 -1312.51 368.308 -1441.67C547.976 -1570.82 823.965 -1355.52 1026.33 -1322.49C1228.73 -1289.43 1558.91 -1405.74 1688.09 -1226.1C1817.26 -1046.46 1601.92 -770.562 1568.89 -568.188C1535.82 -365.815 1652.15 -35.6932 1472.48 93.4618Z" stroke="#CBE9E4" stroke-width="0.31" stroke-miterlimit="10"/>
<path d="M1485.77 83.6996C1308.39 215.977 1028.7 5.55572 825.768 -23.9956C622.834 -53.5469 294.726 68.5281 162.427 -108.824C30.1279 -286.176 240.583 -565.814 270.139 -768.715C299.652 -971.617 177.601 -1299.67 354.981 -1431.95C532.362 -1564.23 812.046 -1353.8 1014.98 -1324.25C1217.91 -1294.7 1546.02 -1416.78 1678.32 -1239.43C1810.62 -1062.07 1600.17 -782.435 1570.61 -579.534C1541.1 -376.632 1663.15 -48.5777 1485.77 83.6996Z" stroke="#CBE9E4" stroke-width="0.31" stroke-miterlimit="10"/>
<path d="M1498.92 73.7171C1323.87 209.073 1040.53 3.53274 837.115 -22.4566C633.697 -48.4459 307.788 79.3019 172.41 -95.7193C37.0329 -270.74 242.606 -553.984 268.556 -757.414C294.549 -960.799 166.781 -1286.65 341.831 -1422.01C516.88 -1557.37 800.214 -1351.83 1003.63 -1325.84C1207.05 -1299.85 1532.96 -1427.6 1668.34 -1252.57C1803.72 -1077.55 1598.14 -794.309 1572.19 -590.88C1546.24 -387.451 1673.97 -61.6385 1498.92 73.7171Z" stroke="#CBE9E4" stroke-width="0.31" stroke-miterlimit="10"/>
<path d="M1511.89 63.5153C1339.26 201.905 1052.36 1.33432 848.506 -21.0491C644.648 -43.4764 321.026 89.9443 182.614 -82.7022C44.2013 -255.305 244.761 -542.155 267.192 -745.98C289.623 -949.805 156.224 -1273.37 328.855 -1411.76C501.486 -1550.15 788.383 -1349.58 992.241 -1327.2C1196.1 -1304.77 1519.72 -1438.19 1658.13 -1265.55C1796.55 -1092.94 1595.99 -806.094 1573.56 -602.269C1551.12 -398.444 1684.52 -74.8746 1511.89 63.5153Z" stroke="#CBE9E4" stroke-width="0.31" stroke-miterlimit="10"/>
<path d="M1524.65 53.093C1354.44 194.473 1064.11 -1.04049 859.898 -19.9058C655.688 -38.7712 334.442 100.234 193.038 -69.9056C51.6352 -240.09 247.181 -530.37 266.049 -734.546C284.918 -938.723 145.889 -1259.92 316.101 -1401.3C486.313 -1542.68 776.64 -1347.16 980.85 -1328.3C1185.06 -1309.43 1506.31 -1448.44 1647.71 -1278.3C1789.11 -1108.12 1593.57 -817.835 1574.7 -613.659C1555.83 -409.482 1694.86 -88.2872 1524.65 53.093Z" stroke="#CBE9E4" stroke-width="0.31" stroke-miterlimit="10"/>
<path d="M1537.27 42.4067C1369.57 186.733 1075.85 -3.67935 871.333 -18.9827C666.816 -34.2861 348.076 110.304 203.682 -57.373C59.3316 -225.05 249.775 -518.716 265.081 -723.157C280.387 -927.641 135.773 -1246.33 303.478 -1390.7C471.182 -1535.03 764.896 -1344.61 969.414 -1329.31C1173.93 -1314.01 1492.67 -1458.6 1637.07 -1290.92C1781.42 -1123.24 1590.97 -829.577 1575.67 -625.136C1560.36 -420.652 1704.97 -101.964 1537.27 42.4067Z" stroke="#CBE9E4" stroke-width="0.31" stroke-miterlimit="10"/>
<path d="M1549.67 31.545C1384.52 178.774 1087.55 -6.49354 882.769 -18.1909C678.032 -29.9323 361.843 120.243 214.546 -44.9279C67.293 -210.055 252.591 -506.975 264.29 -711.723C276.033 -916.428 125.833 -1232.57 291.031 -1379.84C456.185 -1527.07 753.153 -1341.8 957.935 -1330.1C1162.72 -1318.4 1478.86 -1468.54 1626.16 -1303.37C1773.41 -1138.24 1588.11 -841.318 1576.41 -636.57C1564.67 -431.865 1714.87 -115.728 1549.67 31.545Z" stroke="#CBE9E4" stroke-width="0.31" stroke-miterlimit="10"/>
<path d="M1561.9 20.4636C1399.34 170.551 1099.16 -9.48343 894.248 -17.6628C689.334 -25.7982 375.784 129.83 225.673 -32.7024C75.5609 -195.235 255.625 -495.365 263.761 -700.246C271.898 -905.126 116.245 -1218.58 278.847 -1368.71C441.406 -1518.8 741.585 -1338.77 946.499 -1330.59C1151.41 -1322.41 1464.96 -1478.08 1615.07 -1315.55C1765.19 -1153.01 1585.12 -852.883 1576.99 -648.003C1568.85 -443.123 1724.5 -129.668 1561.9 20.4636Z" stroke="#CBE9E4" stroke-width="0.31" stroke-miterlimit="10"/>
<path d="M1573.91 9.16202C1413.99 162.064 1110.73 -12.6937 905.684 -17.2671C700.638 -21.8406 389.903 139.24 236.933 -20.6533C84.0061 -180.547 258.792 -483.756 263.366 -688.768C267.94 -893.78 106.833 -1204.47 266.753 -1357.37C426.672 -1510.27 729.931 -1335.51 934.976 -1330.94C1140.02 -1326.36 1450.76 -1487.45 1603.73 -1327.55C1756.65 -1167.66 1581.87 -864.449 1577.29 -659.437C1572.72 -454.424 1733.83 -143.74 1573.91 9.16202Z" stroke="#CBE9E4" stroke-width="0.31" stroke-miterlimit="10"/>
<path d="M1585.74 -2.35995C1428.5 153.312 1122.25 -16.1681 917.163 -17.1356C712.074 -18.147 404.197 148.343 248.456 -8.86824C92.7585 -166.079 262.222 -472.279 263.234 -677.335C264.246 -882.391 97.7286 -1190.22 254.965 -1345.89C412.202 -1501.56 718.451 -1332.08 923.541 -1331.11C1128.63 -1330.1 1436.51 -1496.59 1592.25 -1339.38C1747.95 -1182.17 1578.48 -875.97 1577.47 -670.914C1576.46 -465.858 1742.98 -158.032 1585.74 -2.35995Z" stroke="#CBE9E4" stroke-width="0.31" stroke-miterlimit="10"/>
<path d="M1597.39 -14.0572C1442.88 144.341 1133.73 -19.7739 928.642 -17.1794C723.553 -14.5849 418.623 157.226 260.199 2.78534C101.775 -151.699 265.873 -460.801 263.322 -665.813C260.727 -870.825 88.8878 -1175.75 243.398 -1334.15C397.908 -1492.55 707.059 -1328.43 912.149 -1331.03C1117.24 -1333.62 1422.17 -1505.43 1580.59 -1350.99C1739.02 -1196.51 1574.92 -887.404 1577.47 -682.392C1580.06 -477.38 1751.9 -172.456 1597.39 -14.0572Z" stroke="#CBE9E4" stroke-width="0.31" stroke-miterlimit="10"/>
<path d="M1608.79 -25.9744C1457.09 135.107 1145.08 -23.5997 940.078 -17.3993C735.077 -11.2427 433.182 165.889 272.075 14.2189C110.967 -137.451 269.656 -449.411 263.498 -654.336C257.341 -859.304 80.1799 -1161.15 231.875 -1322.23C383.57 -1483.31 695.581 -1324.61 900.582 -1330.81C1105.58 -1337.01 1407.48 -1514.09 1568.59 -1362.42C1729.69 -1210.75 1571 -898.794 1577.16 -693.869C1583.32 -488.901 1760.48 -187.055 1608.79 -25.9744Z" stroke="#CBE9E4" stroke-width="0.31" stroke-miterlimit="10"/>
<path d="M1620 -38.1114C1471.12 125.608 1156.43 -27.6454 951.557 -17.883C746.688 -8.16447 447.96 174.201 284.213 25.3886C120.467 -123.467 273.702 -438.11 263.982 -642.946C254.262 -847.782 71.8668 -1146.46 220.703 -1310.18C369.583 -1473.9 684.277 -1320.65 889.147 -1330.41C1094.02 -1340.13 1392.74 -1522.49 1556.49 -1373.68C1720.24 -1224.83 1567 -910.183 1576.72 -705.347C1586.44 -500.51 1768.84 -201.831 1620 -38.1114Z" stroke="#CBE9E4" stroke-width="0.31" stroke-miterlimit="10"/>
<path d="M1631 -50.3805C1485.02 115.89 1167.69 -31.823 962.993 -18.4985C758.343 -5.17406 462.826 182.38 296.529 36.3824C130.231 -109.571 277.968 -426.852 264.641 -631.468C251.315 -836.085 63.7303 -1131.55 209.752 -1297.82C355.729 -1464.09 673.061 -1316.38 877.755 -1329.71C1082.45 -1343.03 1377.92 -1530.58 1544.22 -1384.63C1710.52 -1238.68 1562.78 -921.397 1576.11 -716.78C1589.43 -512.164 1777.02 -216.695 1631 -50.4245L1631 -50.3805Z" stroke="#CBE9E4" stroke-width="0.31" stroke-miterlimit="10"/>
<path d="M1641.77 -62.8693C1498.7 105.907 1178.81 -36.2204 974.428 -19.334C770.042 -2.44751 477.824 190.208 309.02 47.2005C140.216 -95.8508 282.366 -415.638 265.477 -619.991C248.588 -824.344 55.9014 -1116.51 198.932 -1285.29C342.006 -1454.07 661.89 -1311.94 866.276 -1328.83C1070.66 -1345.71 1362.88 -1538.37 1531.68 -1395.36C1700.49 -1252.31 1558.34 -932.522 1575.23 -728.17C1592.12 -523.817 1784.8 -231.646 1641.77 -62.8693Z" stroke="#CBE9E4" stroke-width="0.31" stroke-miterlimit="10"/>
<path d="M1652.33 -75.5786C1512.24 95.7047 1189.94 -40.8382 985.864 -20.4337C781.785 0.0147202 492.997 197.771 321.686 57.7101C150.375 -82.3508 286.94 -404.601 266.532 -608.646C246.081 -812.69 48.2921 -1101.43 188.42 -1272.71C328.504 -1444 650.806 -1307.45 854.884 -1327.86C1058.96 -1348.31 1347.75 -1546.06 1519.06 -1406C1690.37 -1265.94 1553.81 -943.692 1574.22 -739.648C1594.67 -535.603 1792.46 -246.862 1652.33 -75.5786Z" stroke="#CBE9E4" stroke-width="0.31" stroke-miterlimit="10"/>
<path d="M1662.66 -88.4192C1525.57 85.2827 1200.94 -45.6314 997.255 -21.621C793.573 2.38945 508.26 205.159 334.573 68.0883C160.843 -68.9823 291.779 -393.563 267.764 -597.212C243.75 -800.861 40.9474 -1086.13 178.04 -1259.79C315.133 -1433.49 639.767 -1302.57 843.449 -1326.58C1047.13 -1350.59 1332.44 -1553.36 1506.13 -1416.29C1679.86 -1279.22 1548.93 -954.642 1572.94 -750.993C1596.95 -547.344 1799.76 -262.077 1662.66 -88.4192Z" stroke="#CBE9E4" stroke-width="0.31" stroke-miterlimit="10"/>
<path d="M1672.78 -101.48C1538.77 74.5527 1211.89 -50.6447 1008.65 -23.1163C805.404 4.41219 523.697 212.151 347.592 78.1585C171.531 -55.8338 296.748 -382.657 269.215 -585.866C241.683 -789.076 33.9101 -1070.74 167.968 -1246.77C301.982 -1422.8 628.859 -1297.6 832.101 -1325.13C1035.34 -1352.66 1317.05 -1560.4 1493.16 -1426.41C1669.22 -1292.42 1544 -965.592 1571.53 -762.383C1599.07 -559.173 1806.84 -277.512 1672.78 -101.48Z" stroke="#CBE9E4" stroke-width="0.31" stroke-miterlimit="10"/>
<path d="M1682.68 -114.672C1551.74 63.6911 1222.71 -55.7895 1019.99 -24.6991C817.28 6.39136 539.223 219.011 360.831 88.0972C182.439 -42.8169 301.939 -371.795 270.843 -574.477C239.748 -777.158 27.0932 -1055.17 158.073 -1233.53C289.008 -1411.9 618.04 -1292.42 820.754 -1323.51C1023.47 -1354.6 1301.53 -1567.22 1479.92 -1436.3C1658.31 -1305.39 1538.81 -976.41 1569.91 -773.728C1601 -571.047 1813.66 -293.036 1682.68 -114.672Z" stroke="#CBE9E4" stroke-width="0.31" stroke-miterlimit="10"/>
<path d="M1692.31 -128.085C1564.5 52.5213 1233.44 -61.1985 1031.3 -26.59C829.155 8.01844 554.837 225.476 374.202 97.6837C193.566 -30.1081 307.305 -361.109 272.691 -563.219C238.077 -765.329 20.5839 -1039.6 148.397 -1220.21C276.209 -1400.81 607.264 -1287.09 809.407 -1321.7C1011.55 -1356.31 1285.87 -1573.77 1466.5 -1445.98C1647.14 -1318.18 1533.4 -987.184 1568.01 -785.074C1602.63 -582.964 1820.12 -308.691 1692.31 -128.085Z" stroke="#CBE9E4" stroke-width="0.31" stroke-miterlimit="10"/>
<path d="M1701.72 -141.629C1577.07 41.1756 1244.08 -66.7395 1042.6 -28.6131C841.074 9.5134 570.627 231.72 387.792 107.094C204.958 -17.5313 312.89 -350.467 274.758 -551.917C236.625 -753.368 14.3822 -1023.82 139.028 -1206.62C263.674 -1389.42 596.664 -1281.51 798.147 -1319.64C999.674 -1357.76 1270.12 -1579.97 1452.96 -1455.34C1635.79 -1330.72 1527.86 -997.782 1565.99 -796.331C1604.12 -594.881 1826.37 -324.434 1701.72 -141.629Z" stroke="#CBE9E4" stroke-width="0.31" stroke-miterlimit="10"/>
<path d="M1710.91 -155.35C1589.48 29.61 1254.64 -72.5004 1053.86 -30.8559C853.037 10.7886 586.504 237.7 401.514 116.285C216.525 -5.13048 318.652 -339.869 277 -540.66C235.349 -741.451 8.4443 -1007.94 129.836 -1192.9C251.271 -1377.86 586.108 -1275.75 786.888 -1317.39C987.711 -1359.08 1254.24 -1585.95 1439.23 -1464.53C1624.22 -1343.12 1522.1 -1008.38 1563.75 -807.589C1605.4 -606.799 1832.3 -340.309 1710.91 -155.35Z" stroke="#CBE9E4" stroke-width="0.31" stroke-miterlimit="10"/>
<path d="M1719.84 -169.201C1601.66 17.869 1265.11 -78.4366 1065.03 -33.2741C865 11.8884 602.426 243.374 415.325 125.212C228.224 7.05112 324.502 -329.447 279.376 -529.446C234.206 -729.445 2.68279 -991.977 120.863 -1179.05C239.044 -1366.12 575.597 -1269.81 775.672 -1314.97C975.748 -1360.14 1238.28 -1591.62 1425.38 -1473.46C1612.48 -1355.3 1516.2 -1018.8 1561.33 -818.803C1606.45 -618.804 1838.02 -356.272 1719.84 -169.201Z" stroke="#CBE9E4" stroke-width="0.31" stroke-miterlimit="10"/>
<path d="M1728.55 -183.23C1613.67 5.86361 1275.44 -84.5055 1076.25 -35.8689C877.008 12.7676 618.523 248.826 429.399 133.963C240.275 19.1 330.659 -319.025 282.015 -518.233C233.37 -717.44 -2.72684 -975.882 112.199 -1164.98C227.081 -1354.07 565.305 -1263.7 764.501 -1312.34C963.741 -1360.97 1222.23 -1597.03 1411.35 -1482.17C1600.47 -1367.31 1510.09 -1029.18 1558.73 -829.973C1607.38 -630.765 1843.43 -372.323 1728.55 -183.23Z" stroke="#CBE9E4" stroke-width="0.31" stroke-miterlimit="10"/>
<path d="M1736.99 -197.434C1625.41 -6.36159 1285.69 -90.8379 1087.33 -38.7274C888.97 13.3832 634.665 253.927 443.561 142.362C252.458 30.7973 336.948 -308.867 284.829 -507.195C232.71 -705.523 -7.82916 -959.787 103.71 -1150.86C215.249 -1341.93 555.013 -1257.46 753.373 -1309.57C951.777 -1361.63 1206.08 -1602.18 1397.19 -1490.61C1588.29 -1379.05 1503.8 -1039.38 1555.92 -841.054C1608.04 -642.726 1848.58 -388.462 1737.04 -197.39L1736.99 -197.434Z" stroke="#CBE9E4" stroke-width="0.31" stroke-miterlimit="10"/>
<path d="M1745.17 -211.725C1636.93 -18.7183 1295.81 -97.258 1098.37 -41.7173C900.978 13.8233 650.894 258.765 457.856 150.586C264.817 42.3631 343.37 -298.708 287.82 -496.069C232.271 -693.43 -12.7109 -943.472 95.5296 -1136.48C203.77 -1329.49 544.897 -1250.95 742.334 -1306.49C939.77 -1362.07 1189.81 -1607.01 1382.85 -1498.79C1575.89 -1390.57 1497.33 -1049.5 1552.88 -852.136C1608.43 -654.775 1853.42 -404.732 1745.17 -211.725Z" stroke="#CBE9E4" stroke-width="0.31" stroke-miterlimit="10"/>
<path d="M1753.14 -226.194C1648.28 -31.3396 1305.83 -103.943 1109.41 -44.928C912.985 14.0867 667.211 263.338 472.37 158.501C277.484 53.6643 350.099 -288.726 291.074 -485.119C232.05 -681.513 -17.2418 -927.202 87.6121 -1122.06C192.466 -1316.91 534.913 -1244.31 731.338 -1303.32C927.763 -1362.29 1173.49 -1611.59 1368.38 -1506.75C1563.26 -1401.91 1490.65 -1059.52 1549.67 -863.13C1608.7 -666.737 1857.99 -421.048 1753.14 -226.194Z" stroke="#CBE9E4" stroke-width="0.31" stroke-miterlimit="10"/>
<path d="M1760.83 -240.793C1659.41 -44.1365 1315.73 -110.759 1120.36 -48.3141C924.992 14.0867 683.617 267.603 486.972 166.197C290.283 64.79 356.916 -278.832 294.462 -474.17C232.051 -669.507 -21.5075 -910.843 79.9158 -1107.46C181.339 -1304.11 525.017 -1237.49 720.386 -1299.94C915.712 -1362.34 1157.09 -1615.85 1353.78 -1514.45C1550.46 -1413.04 1483.83 -1069.42 1546.29 -874.08C1608.7 -678.742 1862.26 -437.406 1760.83 -240.793Z" stroke="#CBE9E4" stroke-width="0.31" stroke-miterlimit="10"/>
<path d="M1768.27 -255.525C1670.27 -57.1528 1325.5 -117.751 1131.27 -51.9199C937.043 13.9109 700.111 271.605 501.706 173.629C303.302 75.6521 363.866 -269.069 298.068 -463.264C232.271 -657.458 -25.4659 -894.352 72.4827 -1092.72C170.475 -1291.1 515.253 -1230.5 709.479 -1296.33C903.705 -1362.16 1140.64 -1619.85 1339.04 -1521.88C1537.45 -1423.9 1476.88 -1079.18 1542.68 -884.986C1608.52 -690.791 1866.21 -453.897 1768.27 -255.525Z" stroke="#CBE9E4" stroke-width="0.31" stroke-miterlimit="10"/>
<path d="M1775.43 -270.389C1680.92 -70.3455 1335.13 -124.875 1142.09 -55.7017C949.05 13.4712 716.648 275.299 516.572 180.797C316.453 86.338 371.035 -259.439 301.85 -452.446C232.666 -645.453 -29.2046 -877.818 65.3135 -1077.86C159.832 -1277.9 505.621 -1223.37 698.659 -1292.55C891.698 -1361.76 1124.1 -1623.55 1324.18 -1529.05C1524.3 -1434.59 1469.71 -1088.81 1538.9 -895.803C1608.08 -702.796 1869.95 -470.432 1775.43 -270.389Z" stroke="#CBE9E4" stroke-width="0.31" stroke-miterlimit="10"/>
<path d="M1782.38 -285.384C1691.38 -83.7138 1344.67 -132.219 1152.86 -59.6595C961.058 12.8995 733.273 278.686 531.57 187.745C329.867 96.7602 378.38 -249.896 305.809 -441.672C233.238 -633.448 -32.591 -861.195 58.4085 -1062.87C149.408 -1264.54 496.121 -1216.03 687.928 -1288.59C879.735 -1361.15 1107.48 -1626.93 1309.22 -1535.99C1510.92 -1445.01 1462.41 -1098.35 1534.98 -906.577C1607.51 -714.802 1873.38 -487.054 1782.38 -285.384Z" stroke="#CBE9E4" stroke-width="0.31" stroke-miterlimit="10"/>
<path d="M1789.03 -300.467C1701.59 -97.2142 1354.08 -139.694 1163.55 -63.7932C973.021 12.1079 749.942 281.852 546.656 194.385C343.37 106.962 385.857 -240.485 309.943 -430.986C234.03 -621.486 -35.7579 -844.528 51.723 -1047.78C139.16 -1251.03 486.664 -1208.55 677.196 -1284.46C867.727 -1360.31 1090.85 -1630.06 1294.09 -1542.63C1497.38 -1455.21 1454.89 -1107.76 1530.8 -917.263C1606.72 -726.763 1876.51 -503.721 1789.03 -300.467Z" stroke="#CBE9E4" stroke-width="0.31" stroke-miterlimit="10"/>
<path d="M1795.4 -315.683C1711.53 -110.934 1363.32 -147.346 1174.15 -68.1466C984.984 11.0527 766.611 284.666 561.874 200.762C357.092 116.901 393.509 -231.251 314.297 -420.388C235.085 -609.525 -38.5731 -827.862 45.3452 -1032.57C129.22 -1237.31 477.428 -1200.9 666.596 -1280.1C855.764 -1359.3 1074.14 -1632.92 1278.87 -1549.01C1483.66 -1465.15 1447.24 -1117 1526.45 -927.861C1605.66 -738.724 1879.32 -520.387 1795.4 -315.683Z" stroke="#CBE9E4" stroke-width="0.31" stroke-miterlimit="10"/>
<path d="M1801.56 -330.986C1721.25 -124.831 1372.47 -155.13 1184.71 -72.6322C996.947 9.8652 783.413 287.216 577.18 206.918C370.99 126.619 401.294 -222.104 318.783 -409.834C236.273 -597.564 -41.1238 -811.063 39.1879 -1017.26C119.5 -1223.42 468.28 -1193.12 656.04 -1275.62C843.801 -1358.07 1057.38 -1635.42 1263.57 -1555.17C1469.76 -1474.87 1439.45 -1126.15 1521.96 -938.415C1604.48 -750.685 1881.87 -537.186 1801.56 -330.986Z" stroke="#CBE9E4" stroke-width="0.31" stroke-miterlimit="10"/>
<path d="M1807.41 -346.422C1730.7 -138.903 1381.44 -163.133 1195.18 -77.3818C1008.87 8.36973 800.214 289.415 592.618 212.766C385.065 136.074 409.299 -213.089 323.534 -399.368C237.768 -585.647 -43.3229 -794.265 33.3823 -1001.78C110.087 -1209.3 459.351 -1185.07 645.616 -1270.82C831.881 -1356.62 1040.58 -1637.71 1248.13 -1561.02C1455.68 -1484.32 1431.45 -1135.16 1517.21 -948.881C1602.98 -762.603 1884.11 -553.985 1807.41 -346.422Z" stroke="#CBE9E4" stroke-width="0.31" stroke-miterlimit="10"/>
<path d="M1813 -361.945C1739.94 -153.107 1390.33 -171.225 1205.56 -82.2628C1020.79 6.74293 817.059 291.394 608.187 218.351C399.315 145.309 417.436 -204.25 328.46 -388.99C239.44 -573.729 -45.2581 -777.422 27.8406 -986.26C100.895 -1195.1 450.511 -1176.98 635.281 -1265.94C819.962 -1354.99 1023.73 -1639.64 1232.6 -1566.6C1441.48 -1493.56 1423.36 -1144 1512.33 -959.26C1601.35 -774.52 1886.05 -570.827 1813 -361.945Z" stroke="#CBE9E4" stroke-width="0.31" stroke-miterlimit="10"/>
<path d="M1818.32 -377.6C1748.91 -167.531 1399.03 -179.536 1215.85 -87.3203C1032.66 4.89559 833.905 293.065 623.801 223.672C413.698 154.279 425.705 -195.543 333.474 -378.7C241.243 -561.856 -46.9293 -760.536 22.4749 -970.649C91.879 -1180.72 441.758 -1168.71 624.945 -1260.93C808.131 -1353.15 1006.84 -1641.31 1216.99 -1571.92C1427.09 -1502.53 1415.09 -1152.71 1507.32 -969.55C1599.51 -786.393 1887.72 -587.67 1818.32 -377.6Z" stroke="#CBE9E4" stroke-width="0.31" stroke-miterlimit="10"/>
<path d="M1823.33 -393.299C1757.62 -182.042 1407.57 -187.935 1226.01 -92.5529C1044.45 2.82922 850.794 294.428 639.503 228.686C428.211 162.987 434.105 -187.012 338.707 -368.541C243.31 -550.071 -48.337 -743.693 17.4166 -954.95C83.1262 -1166.21 433.182 -1160.31 614.741 -1255.7C796.3 -1351.08 989.954 -1642.63 1201.24 -1576.93C1412.54 -1511.24 1406.64 -1161.24 1502.04 -979.708C1597.44 -798.222 1889.08 -604.556 1823.33 -393.299Z" stroke="#CBE9E4" stroke-width="0.31" stroke-miterlimit="10"/>
<path d="M1828.08 -409.086C1766.07 -196.686 1415.97 -196.51 1236.12 -97.962C1056.28 0.586387 867.727 295.484 655.292 233.479C442.858 171.474 442.682 -178.568 344.117 -358.383C245.553 -538.197 -49.3926 -726.719 12.6225 -939.119C74.6376 -1151.52 424.737 -1151.69 604.581 -1250.24C784.468 -1348.79 973.021 -1643.73 1185.46 -1581.68C1397.89 -1519.68 1398.07 -1169.64 1496.63 -989.822C1595.19 -810.008 1890.14 -621.486 1828.08 -409.086Z" stroke="#CBE9E4" stroke-width="0.31" stroke-miterlimit="10"/>
<path d="M1832.57 -424.961C1774.25 -211.55 1424.24 -205.217 1246.11 -103.591C1067.98 -1.92018 884.616 296.231 671.17 237.92C457.724 179.609 451.39 -170.345 349.747 -348.444C248.06 -526.5 -50.1401 -709.876 8.18044 -923.288C66.501 -1136.7 416.512 -1143.03 594.641 -1244.66C772.725 -1346.33 956.087 -1644.48 1169.58 -1586.17C1383.07 -1527.86 1389.36 -1177.9 1491 -999.804C1592.69 -821.749 1890.89 -638.417 1832.57 -424.961Z" stroke="#CBE9E4" stroke-width="0.31" stroke-miterlimit="10"/>
<path d="M1830.63 -930.324C1890.58 -717.352 1593.79 -531.689 1493.51 -352.842C1393.23 -173.995 1389.62 176.047 1176.62 235.986C963.609 295.924 777.916 -0.82069 599.04 -101.084C420.163 -201.347 70.1081 -204.954 10.1162 -417.925C-49.8317 -630.897 246.961 -816.56 347.241 -995.407C447.52 -1174.25 451.127 -1524.3 664.133 -1584.23C877.14 -1644.17 1062.83 -1347.43 1241.71 -1247.16C1420.63 -1146.9 1770.68 -1143.3 1830.63 -930.324Z" stroke="#CBE9E4" stroke-width="0.31" stroke-miterlimit="10"/>
<path d="M1826.01 -946.155C1889.7 -734.239 1596.16 -543.474 1499.01 -362.868C1401.85 -182.306 1404.36 167.736 1192.45 231.412C980.498 295.088 789.703 1.59763 609.067 -95.5435C428.432 -192.685 78.3764 -190.178 14.734 -402.094C-48.9524 -614.011 244.586 -804.775 341.743 -985.381C438.9 -1165.94 436.393 -1515.99 648.299 -1579.66C860.25 -1643.34 1051.05 -1349.85 1231.68 -1252.71C1412.32 -1155.56 1762.37 -1158.07 1826.01 -946.155Z" stroke="#CBE9E4" stroke-width="0.31" stroke-miterlimit="10"/>
<path d="M1821.13 -961.898C1888.47 -751.125 1598.36 -555.26 1504.37 -372.983C1410.38 -190.75 1419 159.205 1208.19 226.531C997.387 293.857 801.49 3.79655 619.227 -90.1784C436.964 -184.153 86.9529 -175.534 19.616 -386.307C-47.721 -597.08 242.386 -792.946 336.377 -975.223C430.367 -1157.46 421.746 -1507.41 632.554 -1574.74C843.361 -1642.06 1039.26 -1352 1221.52 -1258.03C1403.78 -1164.05 1753.8 -1172.67 1821.13 -961.898Z" stroke="#CBE9E4" stroke-width="0.31" stroke-miterlimit="10"/>
<path d="M1815.99 -977.597C1887.02 -768.056 1600.34 -567.133 1509.52 -383.273C1418.74 -199.413 1433.47 150.322 1223.85 221.342C1014.28 292.361 813.321 5.73132 629.431 -85.0334C445.541 -175.798 95.7494 -161.111 24.762 -370.652C-46.2695 -580.194 240.407 -781.116 331.231 -964.976C422.054 -1148.84 407.276 -1498.57 616.852 -1569.59C826.428 -1640.61 1027.38 -1353.98 1211.27 -1263.22C1395.16 -1172.41 1744.95 -1187.14 1815.99 -977.597Z" stroke="#CBE9E4" stroke-width="0.31" stroke-miterlimit="10"/>
<path d="M1810.53 -993.164C1885.21 -784.898 1602.1 -579.006 1514.49 -393.563C1426.92 -208.164 1447.77 141.263 1239.42 215.933C1031.12 290.602 825.196 7.53422 639.723 -80.0203C454.293 -167.575 104.81 -146.775 30.1277 -355.041C-44.5543 -563.307 238.56 -769.199 326.173 -954.642C413.742 -1140.04 392.894 -1489.47 601.238 -1564.14C809.539 -1638.81 1015.46 -1355.74 1200.94 -1268.19C1386.41 -1180.63 1735.89 -1201.43 1810.53 -993.164Z" stroke="#CBE9E4" stroke-width="0.31" stroke-miterlimit="10"/>
<path d="M1804.86 -1008.64C1883.15 -801.696 1603.68 -590.88 1519.33 -403.985C1434.97 -217.091 1461.93 131.94 1254.95 210.216C1047.97 288.492 837.115 9.07363 650.191 -75.2268C463.266 -159.527 114.178 -132.614 35.8895 -339.562C-42.3991 -546.509 237.065 -757.326 321.423 -944.22C405.737 -1131.16 378.82 -1480.15 585.801 -1558.42C792.781 -1636.7 1003.63 -1357.28 1190.56 -1272.98C1377.48 -1188.68 1726.57 -1215.59 1804.86 -1008.64Z" stroke="#CBE9E4" stroke-width="0.31" stroke-miterlimit="10"/>
<path d="M1798.88 -1024.03C1880.77 -818.495 1605 -602.841 1523.94 -414.495C1442.88 -226.149 1475.91 122.354 1270.34 204.236C1064.77 286.117 849.079 10.3931 660.702 -70.6092C472.326 -151.655 123.766 -118.63 41.9148 -324.17C-39.9803 -529.71 235.789 -745.364 316.848 -933.71C397.908 -1122.06 364.877 -1470.56 570.451 -1552.44C776.024 -1634.32 991.713 -1358.6 1180.09 -1277.6C1368.47 -1196.55 1717.03 -1229.57 1798.88 -1024.03Z" stroke="#CBE9E4" stroke-width="0.31" stroke-miterlimit="10"/>
<path d="M1792.63 -1039.34C1878.09 -835.249 1606.15 -614.846 1528.39 -425.093C1450.62 -235.34 1489.73 112.503 1285.6 197.947C1081.48 283.391 861.042 11.4922 671.258 -66.2559C481.474 -144.004 133.574 -104.91 48.1162 -308.999C-37.3414 -513.087 234.601 -733.491 312.362 -923.244C390.123 -1113 351.023 -1460.84 555.145 -1546.28C759.267 -1631.73 979.706 -1359.83 1169.49 -1282.08C1359.27 -1204.33 1707.17 -1243.43 1792.63 -1039.34Z" stroke="#CBE9E4" stroke-width="0.31" stroke-miterlimit="10"/>
<path d="M1786.12 -1054.47C1875.14 -851.916 1607.07 -626.763 1532.65 -435.691C1458.23 -244.619 1503.4 102.477 1300.78 191.483C1098.19 280.488 873.005 12.4597 681.902 -61.9463C490.798 -136.352 143.646 -91.2337 54.6257 -293.783C-34.3945 -496.333 233.678 -721.486 308.096 -912.558C382.514 -1103.63 337.344 -1450.73 539.971 -1539.73C742.553 -1628.74 967.743 -1360.71 1158.85 -1286.3C1349.95 -1211.9 1697.1 -1257.02 1786.12 -1054.47Z" stroke="#CBE9E4" stroke-width="0.31" stroke-miterlimit="10"/>
<path d="M1779.35 -1069.55C1871.89 -868.583 1607.82 -638.768 1536.74 -446.465C1465.67 -254.118 1516.86 92.1427 1315.86 184.666C1114.86 277.19 885.056 13.1634 692.678 -57.9005C500.299 -128.964 153.982 -77.7773 61.4435 -278.744C-31.0953 -479.71 232.974 -709.525 304.05 -901.828C375.125 -1094.18 323.93 -1440.44 524.929 -1532.96C725.928 -1625.48 955.736 -1361.46 1148.11 -1290.39C1340.49 -1219.33 1686.81 -1270.52 1779.35 -1069.55Z" stroke="#CBE9E4" stroke-width="0.31" stroke-miterlimit="10"/>
<path d="M1772.31 -1084.46C1868.33 -885.117 1608.3 -650.774 1540.61 -457.195C1472.92 -263.616 1530.15 81.6766 1330.77 177.718C1131.4 273.76 897.02 13.7349 703.454 -53.9429C509.887 -121.665 164.494 -64.4091 68.4806 -263.748C-27.5328 -463.088 232.491 -697.431 300.18 -891.01C367.912 -1084.54 310.647 -1429.88 510.019 -1525.92C709.391 -1621.97 943.773 -1361.94 1137.34 -1294.26C1330.91 -1226.58 1676.3 -1283.8 1772.31 -1084.46Z" stroke="#CBE9E4" stroke-width="0.31" stroke-miterlimit="10"/>
<path d="M1765.01 -1099.28C1864.5 -901.652 1608.61 -662.779 1544.31 -468.101C1480.01 -273.423 1543.25 70.8589 1345.6 170.375C1147.94 269.847 909.027 13.999 714.317 -50.2927C519.563 -114.584 175.27 -51.3481 75.7816 -248.973C-23.7064 -446.597 232.183 -685.47 296.485 -880.148C360.787 -1074.83 297.541 -1419.11 495.197 -1518.62C692.854 -1618.1 931.766 -1362.25 1126.48 -1297.96C1321.23 -1233.66 1665.52 -1296.9 1765.01 -1099.28Z" stroke="#CBE9E4" stroke-width="0.31" stroke-miterlimit="10"/>
<path d="M1757.45 -1113.92C1860.36 -918.055 1608.7 -674.784 1547.78 -478.963C1486.87 -283.185 1556.14 59.953 1360.24 162.855C1164.34 265.757 921.034 14.131 725.181 -46.7747C529.371 -107.68 186.177 -38.4195 83.2585 -234.285C-19.6601 -430.15 232.007 -673.421 292.922 -869.242C353.838 -1065.02 284.566 -1408.16 480.463 -1511.06C676.36 -1613.96 919.671 -1362.34 1115.52 -1301.43C1311.33 -1240.52 1654.53 -1309.79 1757.45 -1113.92Z" stroke="#CBE9E4" stroke-width="0.31" stroke-miterlimit="10"/>
<path d="M1749.66 -1128.48C1856.01 -934.458 1608.61 -686.789 1551.12 -489.957C1493.64 -293.124 1568.85 48.6951 1374.8 155.027C1180.75 261.359 933.041 13.9987 736.176 -43.4768C539.311 -100.952 197.437 -25.755 91.0876 -219.773C-15.2616 -413.792 232.139 -661.46 289.624 -858.293C347.109 -1055.13 271.899 -1396.94 465.949 -1503.28C659.999 -1609.61 907.707 -1362.25 1104.57 -1304.77C1301.44 -1247.3 1643.31 -1322.49 1749.66 -1128.48Z" stroke="#CBE9E4" stroke-width="0.31" stroke-miterlimit="10"/>
<path d="M1741.61 -1142.86C1851.3 -950.728 1608.3 -698.795 1554.25 -500.994C1500.19 -303.194 1581.38 37.3058 1389.23 146.98C1197.07 256.654 945.092 13.6911 747.26 -40.3544C549.427 -94.3999 208.916 -13.2219 99.18 -205.349C-10.5119 -397.477 232.491 -649.411 286.545 -847.211C340.599 -1045.01 259.408 -1385.51 451.567 -1495.18C643.725 -1604.86 895.7 -1361.9 1093.53 -1307.85C1291.37 -1253.81 1631.88 -1334.98 1741.61 -1142.86Z" stroke="#CBE9E4" stroke-width="0.31" stroke-miterlimit="10"/>
<path d="M1733.3 -1157.15C1846.33 -966.955 1607.73 -710.844 1557.15 -512.12C1506.57 -313.396 1593.7 25.6083 1403.43 138.624C1213.21 251.641 957.055 13.1193 758.299 -37.4961C559.543 -88.0675 220.483 -0.996773 107.448 -191.189C-5.58617 -381.382 233.018 -637.493 283.598 -836.217C334.177 -1034.94 247.048 -1373.95 437.316 -1486.96C627.539 -1599.98 883.693 -1361.46 1082.45 -1310.84C1281.2 -1260.27 1620.26 -1347.34 1733.3 -1157.15Z" stroke="#CBE9E4" stroke-width="0.31" stroke-miterlimit="10"/>
<path d="M1724.72 -1171.22C1841.1 -983.05 1606.98 -722.805 1559.88 -523.202C1512.77 -323.642 1605.79 13.7792 1417.55 130.138C1229.31 246.452 969.019 12.4161 769.427 -34.6814C569.835 -81.7788 232.358 11.2286 115.981 -176.985C-0.352024 -365.199 233.722 -625.444 280.827 -825.003C327.932 -1024.56 234.91 -1361.98 423.154 -1478.34C611.398 -1594.7 871.686 -1360.66 1071.32 -1313.57C1270.96 -1266.47 1608.39 -1359.43 1724.72 -1171.22Z" stroke="#CBE9E4" stroke-width="0.31" stroke-miterlimit="10"/>
</g>
<defs>
<clipPath id="clip0_104_2">
<rect width="246" height="1841" fill="white" transform="translate(1841 8.04727e-05) rotate(90)"/>
</clipPath>
</defs>
</svg>
