<svg width="60" height="60" viewBox="0 0 60 60" fill="none" xmlns="http://www.w3.org/2000/svg">
<path d="M45 0H15C11.0218 0 7.20644 1.58035 4.3934 4.3934C1.58035 7.20644 0 11.0218 0 15V45C0 48.9782 1.58035 52.7936 4.3934 55.6066C7.20644 58.4197 11.0218 60 15 60H45C48.9782 60 52.7936 58.4197 55.6066 55.6066C58.4197 52.7936 60 48.9782 60 45V15C60 11.0218 58.4197 7.20644 55.6066 4.3934C52.7936 1.58035 48.9782 0 45 0Z" fill="#77DDE7"/>
<path d="M49.1092 35.9967C49.1035 36.4218 48.9657 36.8346 48.715 37.1779C48.4644 37.5213 48.1132 37.7783 47.7101 37.9133L44.1068 39.1017C42.9706 39.4911 41.945 40.1485 41.1167 41.0183C40.2534 41.8594 39.5973 42.8896 39.2001 44.0275L37.9542 47.6117C37.8123 48.007 37.5594 48.353 37.2259 48.6083C36.8722 48.8569 36.4507 48.9907 36.0184 48.9917C35.5906 49.0001 35.1723 48.8652 34.8301 48.6083C34.4804 48.3567 34.2189 48.0012 34.0826 47.5925L32.8751 43.9892C32.5013 42.8564 31.8683 41.8265 31.0264 40.9813C30.1846 40.1362 29.1572 39.4991 28.0259 39.1208L24.4226 37.9325C24.0173 37.7896 23.6637 37.5294 23.4067 37.185C23.215 36.9241 23.0884 36.6211 23.0376 36.3013C22.9867 35.9815 23.013 35.6542 23.1142 35.3466C23.2155 35.0391 23.3888 34.7602 23.6197 34.5332C23.8507 34.3062 24.1325 34.1377 24.4417 34.0417L28.0259 32.8533C29.1699 32.4808 30.2102 31.8443 31.0626 30.9952C31.915 30.1461 32.5556 29.1084 32.9326 27.9658L34.1209 24.4008C34.237 24.0027 34.4791 23.653 34.8109 23.4042C35.1405 23.1308 35.5521 22.9756 35.9801 22.9633C36.4164 22.9351 36.8492 23.0568 37.2068 23.3083C37.5743 23.5417 37.8514 23.8932 37.9926 24.305L39.2001 27.9467C39.5726 29.0907 40.2092 30.1309 41.0582 30.9833C41.9073 31.8357 42.9451 32.4763 44.0876 32.8533L47.6717 34.0992C48.0752 34.2254 48.4256 34.4815 48.6684 34.8275C48.9301 35.1637 49.0838 35.5714 49.1092 35.9967ZM30.1917 22.6739C30.1862 23.0668 30.0601 23.4486 29.8304 23.7674C29.6007 24.0863 29.2785 24.3268 28.9076 24.4564L26.3392 25.2998C25.6143 25.5554 24.9583 25.9752 24.4226 26.5264C23.8765 27.0664 23.4575 27.7211 23.1959 28.4431L22.2951 31.0114C22.1716 31.3695 21.9449 31.683 21.6434 31.9123C21.3171 32.141 20.9302 32.2678 20.5317 32.2764C20.1365 32.2695 19.7531 32.1406 19.4339 31.9072C19.1148 31.6739 18.8757 31.3476 18.7492 30.9731L17.9059 28.4048C17.6503 27.6798 17.2305 27.0238 16.6792 26.4881C16.1393 25.9421 15.4846 25.523 14.7626 25.2614L12.1751 24.3989C11.7999 24.2782 11.476 24.0353 11.2551 23.7089C11.0162 23.3951 10.8881 23.0109 10.8909 22.6164C10.8935 22.217 11.0208 21.8283 11.2551 21.5048C11.4946 21.1971 11.8222 20.9697 12.1942 20.8531L14.7626 19.9906C15.4846 19.729 16.1393 19.31 16.6792 18.7639C17.2351 18.233 17.6548 17.5756 17.9059 16.8473L18.7684 14.3173C18.8833 13.9546 19.1035 13.6344 19.4009 13.3973C19.7071 13.1555 20.0842 13.0208 20.4742 13.0139C20.8695 12.9807 21.2636 13.0894 21.5859 13.3206C21.9158 13.5386 22.1702 13.8532 22.3142 14.2214L23.1767 16.8473C23.4355 17.5718 23.8552 18.2273 24.4034 18.7639C24.9434 19.31 25.5981 19.729 26.3201 19.9906L28.9076 20.8914C29.2684 21.0262 29.5802 21.2665 29.8024 21.581C30.0246 21.8955 30.1469 22.2697 30.1534 22.6548L30.1917 22.6739Z" fill="#111612"/>
</svg>
