<svg width="80" height="80" viewBox="0 0 80 80" fill="none" xmlns="http://www.w3.org/2000/svg">
<path d="M40 13.3333C14.4334 13.3333 6.86672 38.8333 6.80005 39.0999C6.63338 39.6999 6.63338 40.3333 6.80005 40.9333C6.86672 41.1999 14.4667 66.6999 40 66.6999C65.5334 66.6999 73.1334 41.1999 73.2 40.9333C73.3667 40.3333 73.3667 39.6999 73.2 39.0999C73.1334 38.8333 65.5334 13.3333 40 13.3333ZM40 53.3333C32.7001 53.3333 26.6667 47.2999 26.6667 39.9999C26.6667 32.6999 32.7001 26.6666 40 26.6666C47.3 26.6666 53.3334 32.6999 53.3334 39.9999C53.3334 47.2999 47.3 53.3333 40 53.3333Z" fill="#77DDE7"/>
</svg>
