<svg width="60" height="60" viewBox="0 0 60 60" fill="none" xmlns="http://www.w3.org/2000/svg">
<path d="M45 0H15C11.0218 0 7.20644 1.58035 4.3934 4.3934C1.58035 7.20644 0 11.0218 0 15V45C0 48.9782 1.58035 52.7936 4.3934 55.6066C7.20644 58.4197 11.0218 60 15 60H45C48.9782 60 52.7936 58.4197 55.6066 55.6066C58.4197 52.7936 60 48.9782 60 45V15C60 11.0218 58.4197 7.20644 55.6066 4.3934C52.7936 1.58035 48.9782 0 45 0Z" fill="#77DDE7"/>
<path fill-rule="evenodd" clip-rule="evenodd" d="M23.8058 25.3333C23.1752 25.3333 22.5507 25.4669 21.9681 25.7265C21.3855 25.9861 20.8561 26.3666 20.4102 26.8463C19.9643 27.326 19.6106 27.8954 19.3693 28.5222C19.1279 29.1489 19.0037 29.8206 19.0037 30.499C19.0037 31.1774 19.1279 31.8491 19.3693 32.4758C19.6106 33.1026 19.9643 33.672 20.4102 34.1517C20.8561 34.6314 21.3855 35.0119 21.9681 35.2715C22.5507 35.5311 23.1752 35.6647 23.8058 35.6647H28.6078V25.3333H23.8058ZM28.6078 22.3334H23.8058C22.532 22.3334 21.3103 21.7891 20.4096 20.8201C19.5088 19.8512 19.0028 18.537 19.0028 17.1667C19.0028 15.7964 19.5088 14.4822 20.4096 13.5133C21.3103 12.5443 22.532 12 23.8058 12H28.6078V22.3334ZM31.3965 12V22.3334H36.1986C37.456 22.3068 38.6537 21.7508 39.5342 20.7847C40.4147 19.8187 40.908 18.5197 40.908 17.1667C40.908 15.8138 40.4147 14.5148 39.5342 13.5487C38.6537 12.5827 37.456 12.0266 36.1986 12H31.3965ZM36.1986 25.3313C34.9381 25.3311 33.7281 25.8641 32.8297 26.8152C31.9313 27.7663 31.4165 29.0592 31.3965 30.415V30.581C31.4119 31.5989 31.7066 32.5893 32.2435 33.4277C32.7804 34.266 33.5357 34.9151 34.4144 35.2932C35.2931 35.6713 36.256 35.7617 37.1824 35.553C38.1087 35.3443 38.957 34.8458 39.6208 34.1201C40.2846 33.3945 40.7342 32.474 40.9133 31.4743C41.0923 30.4746 40.9928 29.4403 40.6271 28.5013C40.2615 27.5622 39.6461 26.7604 38.8582 26.1964C38.0702 25.6324 37.145 25.3314 36.1986 25.3313ZM23.8058 38.6646C22.8556 38.6642 21.9266 38.9669 21.1364 39.5345C20.3461 40.1021 19.7301 40.909 19.3662 41.8533C19.0023 42.7975 18.9069 43.8367 19.0921 44.8392C19.2772 45.8418 19.7346 46.7628 20.4064 47.4857C21.0781 48.2086 21.9341 48.701 22.866 48.9006C23.798 49.1001 24.764 48.9979 25.6419 48.6068C26.5198 48.2157 27.2702 47.5534 27.7981 46.7035C28.3261 45.8536 28.6078 44.8544 28.6078 43.8323V38.6646H23.8058Z" fill="#111612"/>
</svg>
