<svg width="60" height="60" viewBox="0 0 60 60" fill="none" xmlns="http://www.w3.org/2000/svg">
<path d="M25.2298 22.4399C26.2798 25.8599 27.3598 29.2799 28.4398 32.7599H22.0798C23.1598 29.2799 24.1798 25.8599 25.2298 22.4399Z" fill="black"/>
<path d="M45 0H15C11.0218 0 7.20644 1.58035 4.3934 4.3934C1.58035 7.20644 0 11.0218 0 15V45C0 48.9782 1.58035 52.7936 4.3934 55.6066C7.20644 58.4196 11.0218 60 15 60H45C48.9782 60 52.7936 58.4196 55.6066 55.6066C58.4196 52.7936 60 48.9782 60 45V15C60 11.0218 58.4196 7.20644 55.6066 4.3934C52.7936 1.58035 48.9782 0 45 0ZM37.47 44.34H32.79C32.6033 44.3659 32.4139 44.3176 32.2625 44.2054C32.111 44.0932 32.0096 43.9261 31.98 43.74C31.41 42.06 30.81 40.38 30.24 38.67C30.222 38.5628 30.1827 38.4603 30.1243 38.3686C30.0659 38.2769 29.9896 38.1979 29.9 38.1363C29.8104 38.0747 29.7094 38.0318 29.6029 38.0101C29.4963 37.9884 29.3865 37.9884 29.28 38.01H21.3C21.1892 37.9839 21.0741 37.9814 20.9622 38.0027C20.8504 38.024 20.7443 38.0687 20.6509 38.1338C20.5574 38.1989 20.4788 38.283 20.4201 38.3806C20.3613 38.4781 20.3238 38.587 20.31 38.7C19.8 40.38 19.23 42 18.72 43.68C18.7057 43.786 18.6698 43.8879 18.6145 43.9795C18.5592 44.071 18.4856 44.1502 18.3984 44.2121C18.3112 44.2739 18.2122 44.3173 18.1075 44.3393C18.0028 44.3613 17.8948 44.3615 17.79 44.34H13.68C12.96 44.34 12.9 44.34 13.14 43.59L19.62 24.9C20.22 23.19 20.82 21.48 21.36 19.77C21.5083 19.2628 21.589 18.7383 21.6 18.21C21.6 17.58 21.84 17.43 22.41 17.46H28.14C28.56 17.46 28.77 17.46 28.92 18.03L36.3 38.82C36.87 40.44 37.44 42.03 37.98 43.62C38.22 44.28 38.19 44.34 37.47 44.34ZM46.65 43.83C46.65 44.34 46.44 44.49 45.96 44.49H41.64C41.04 44.49 40.89 44.25 40.89 43.71V24.87C40.89 24.27 41.07 24.03 41.7 24.06H45.93C46.41 24.06 46.65 24.06 46.65 24.72C46.63 31.08 46.63 37.45 46.65 43.83ZM43.65 21.93C43.2201 21.9573 42.7894 21.8917 42.3872 21.7377C41.9849 21.5837 41.6206 21.3448 41.3188 21.0374C41.0171 20.73 40.7851 20.3613 40.6387 19.9562C40.4922 19.5511 40.4347 19.1193 40.47 18.69C40.4738 18.2633 40.5627 17.8417 40.7314 17.4497C40.9001 17.0578 41.1452 16.7034 41.4525 16.4073C41.7597 16.1112 42.123 15.8793 42.5209 15.7253C42.9188 15.5712 43.3435 15.498 43.77 15.51C44.185 15.5087 44.5958 15.5935 44.9763 15.759C45.3569 15.9245 45.6989 16.1672 45.9809 16.4718C46.2629 16.7763 46.4786 17.136 46.6144 17.5281C46.7502 17.9203 46.8032 18.3363 46.77 18.75C46.7946 19.1588 46.7352 19.5684 46.5955 19.9534C46.4557 20.3384 46.2386 20.6907 45.9576 20.9887C45.6765 21.2866 45.3374 21.5238 44.9612 21.6857C44.585 21.8476 44.1796 21.9307 43.77 21.93H43.65Z" fill="#77DDE7"/>
<path d="M28.4398 32.7599H22.0798C23.1598 29.2799 24.1798 25.8599 25.0798 22.4399C26.2798 25.8599 27.3598 29.2799 28.4398 32.7599Z" fill="#77DDE7"/>
</svg>
