<svg width="24" height="24" viewBox="0 0 24 24" fill="none" xmlns="http://www.w3.org/2000/svg">
<path d="M20 5.39932C20 5.04587 19.8596 4.7069 19.6097 4.45697C19.3597 4.20704 19.0208 4.06663 18.6673 4.06663L8.0058 4C7.65234 4 7.31337 4.14041 7.06344 4.39034C6.81351 4.64026 6.67311 4.97924 6.67311 5.33269C6.67311 5.68614 6.81351 6.02512 7.06344 6.27504C7.31337 6.52497 7.65234 6.66538 8.0058 6.66538H15.4155L4.39421 17.7134C4.2693 17.8373 4.17015 17.9847 4.10249 18.1471C4.03483 18.3095 4 18.4837 4 18.6596C4 18.8355 4.03483 19.0097 4.10249 19.1721C4.17015 19.3345 4.2693 19.4819 4.39421 19.6058C4.5181 19.7307 4.66549 19.8299 4.8279 19.8975C4.9903 19.9652 5.16449 20 5.34042 20C5.51635 20 5.69054 19.9652 5.85294 19.8975C6.01534 19.8299 6.16274 19.7307 6.28663 19.6058L17.3346 8.5578V15.9942C17.3346 16.3477 17.475 16.6866 17.725 16.9366C17.9749 17.1865 18.3139 17.3269 18.6673 17.3269C19.0208 17.3269 19.3597 17.1865 19.6097 16.9366C19.8596 16.6866 20 16.3477 20 15.9942V5.39932Z" fill="white"/>
</svg>
