<svg width="140" height="140" viewBox="0 0 140 140" fill="none" xmlns="http://www.w3.org/2000/svg">
<path d="M29.1667 122.5C25.9583 122.5 23.1875 121.382 20.8542 119.146C18.6181 116.812 17.5 114.042 17.5 110.833V29.1667C17.5 25.9583 18.6181 23.2361 20.8542 21C23.1875 18.6667 25.9583 17.5 29.1667 17.5H110.833C114.042 17.5 116.764 18.6667 119 21C121.333 23.2361 122.5 25.9583 122.5 29.1667V110.833C122.5 114.042 121.333 116.812 119 119.146C116.764 121.382 114.042 122.5 110.833 122.5H29.1667ZM29.1667 110.833H110.833V29.1667H29.1667V110.833ZM35 99.1667H105L83.125 70L65.625 93.3333L52.5 75.8333L35 99.1667ZM29.1667 110.833V29.1667V110.833Z" fill="#CBE9E4"/>
</svg>
