<svg width="60" height="60" viewBox="0 0 60 60" fill="none" xmlns="http://www.w3.org/2000/svg">
<path d="M25.3503 25.44C25.3957 26.3509 25.1204 27.2489 24.5723 27.9778C24.0242 28.7068 23.238 29.2206 22.3503 29.43C20.7843 29.8924 19.151 30.0852 17.5203 30C17.1003 30 17.0703 29.73 17.0703 29.43V21.78C17.0703 21.57 17.2803 21.21 17.4003 21.21C19.1164 21.0178 20.853 21.1295 22.5303 21.54C23.3745 21.7713 24.1142 22.2841 24.6271 22.9934C25.14 23.7026 25.3951 24.5658 25.3503 25.44Z" fill="#77DDE7"/>
<path d="M45 0H15C11.0218 0 7.20644 1.58035 4.3934 4.3934C1.58035 7.20644 0 11.0218 0 15V45C0 48.9782 1.58035 52.7936 4.3934 55.6066C7.20644 58.4196 11.0218 60 15 60H45C48.9782 60 52.7936 58.4196 55.6066 55.6066C58.4196 52.7936 60 48.9782 60 45V15C60 11.0218 58.4196 7.20644 55.6066 4.3934C52.7936 1.58035 48.9782 0 45 0ZM27 33C25.4859 33.9616 23.7508 34.5193 21.96 34.62H17.94C17.1 34.62 17.1 34.62 17.1 35.43V42.39C17.1 42.99 16.92 43.17 16.32 43.17H12.36C11.79 43.17 11.64 42.96 11.64 42.42V17.13C11.64 16.53 11.64 16.35 12.39 16.35H21.78C23.494 16.3964 25.1673 16.8819 26.64 17.76C27.9118 18.4767 28.9708 19.518 29.7086 20.7776C30.4465 22.0373 30.8369 23.4701 30.84 24.93C31.0135 26.4991 30.7461 28.0856 30.0678 29.5112C29.3895 30.9367 28.3271 32.1449 27 33ZM44.76 42.9C42.151 43.9165 39.2946 44.1153 36.57 43.47C35.752 43.29 34.952 43.05 34.17 42.75C34.0494 42.6934 33.9434 42.6099 33.8602 42.5059C33.777 42.4018 33.7187 42.2801 33.69 42.15V37.62C34.65 37.98 35.55 38.4 36.48 38.7C38.0386 39.1981 39.6888 39.3416 41.31 39.12C41.634 39.06 41.944 38.96 42.24 38.82C42.4158 38.743 42.5687 38.6217 42.6836 38.468C42.7986 38.3143 42.8717 38.1335 42.8959 37.9431C42.9201 37.7526 42.8945 37.5592 42.8216 37.3817C42.7487 37.2041 42.631 37.0485 42.48 36.93C41.7937 36.4549 41.0597 36.0527 40.29 35.73C39.06 35.13 37.8 34.65 36.63 33.96C35.5736 33.4461 34.7111 32.6051 34.1707 31.5621C33.6302 30.519 33.4406 29.3294 33.63 28.17C33.7826 27.0541 34.2461 26.0038 34.9677 25.139C35.6892 24.2742 36.6395 23.63 37.71 23.28C39.6394 22.6276 41.6982 22.4526 43.71 22.77C44.67 22.77 45.6 23.13 46.56 23.31C47.07 23.31 47.25 23.73 47.22 24.24V27.75C47.22 28.41 47.07 28.47 46.47 28.23C44.5963 27.3625 42.5251 27.0104 40.47 27.21C40.1788 27.2439 39.8951 27.3249 39.63 27.45C39.45 27.5207 39.2916 27.6371 39.1705 27.7878C39.0494 27.9385 38.9697 28.1182 38.9394 28.3092C38.9091 28.5001 38.9292 28.6957 38.9977 28.8765C39.0662 29.0573 39.1808 29.2171 39.33 29.34C40.198 29.918 41.108 30.418 42.06 30.84C43.2 31.41 44.4 31.86 45.51 32.49C46.5172 32.9483 47.3516 33.7166 47.8913 34.6827C48.431 35.6487 48.6478 36.762 48.51 37.86C48.4152 38.9553 48.0089 40.0006 47.339 40.8724C46.6692 41.7443 45.7639 42.4062 44.73 42.78L44.76 42.9Z" fill="#77DDE7"/>
</svg>
