<svg width="80" height="80" viewBox="0 0 80 80" fill="none" xmlns="http://www.w3.org/2000/svg">
<path d="M63.271 28.3505C66.8424 26.7065 69.1666 22.7949 68.2029 18.4298C67.5227 15.2552 64.8583 12.5908 61.6837 11.9105C57.2619 10.9468 53.3503 13.2144 51.7063 16.7858L41.559 6.63836C41.3587 6.4361 41.1203 6.27555 40.8575 6.16598C40.5948 6.05641 40.313 6 40.0283 6C39.7437 6 39.4619 6.05641 39.1991 6.16598C38.9364 6.27555 38.698 6.4361 38.4977 6.63836L29.7109 15.4253C28.6338 16.5024 29.0306 18.3165 30.4479 18.94C31.7469 19.512 32.8869 20.3921 33.7691 21.5041C34.6513 22.616 35.249 23.9263 35.5106 25.3214C35.7721 26.7165 35.6895 28.1544 35.27 29.5103C34.8505 30.8663 34.1067 32.0996 33.103 33.1033C32.0994 34.1069 30.8661 34.8508 29.5101 35.2703C28.1542 35.6898 26.7163 35.7724 25.3213 35.5108C23.9262 35.2493 22.6159 34.6515 21.5039 33.7693C20.392 32.8871 19.5119 31.7471 18.9399 30.4481C18.3163 29.0308 16.5023 28.634 15.4252 29.7111L6.63835 38.498C6.4361 38.6983 6.27555 38.9367 6.16598 39.1994C6.05641 39.4622 6 39.744 6 40.0286C6 40.3133 6.05641 40.5951 6.16598 40.8578C6.27555 41.1206 6.4361 41.359 6.63835 41.5593L16.7857 51.7067C13.2143 53.3507 10.9467 57.2623 11.8538 61.6275C12.534 64.8021 15.1984 67.4665 18.373 68.1468C22.7381 69.1105 26.6497 66.7862 28.2937 63.2148L38.441 73.3622C39.2914 74.2126 40.6519 74.2126 41.5023 73.3622L50.2324 64.632C51.3095 63.5549 50.9694 61.7408 49.5521 61.1172C46.5476 59.7567 44.3934 56.6954 44.3934 53.124C44.3925 51.1197 45.0812 49.1761 46.3439 47.6196C47.6067 46.0631 49.3666 44.9885 51.328 44.5763C53.2894 44.164 55.333 44.4393 57.1154 45.3557C58.8979 46.2722 60.3108 47.7741 61.1168 49.6092C61.7403 51.0265 63.5544 51.4233 64.6315 50.2895L73.3616 41.5593C73.5639 41.359 73.7244 41.1206 73.834 40.8578C73.9436 40.5951 74 40.3133 74 40.0286C74 39.744 73.9436 39.4622 73.834 39.1994C73.7244 38.9367 73.5639 38.6983 73.3616 38.498L63.271 28.3505Z" fill="#77DDE7"/>
</svg>
