<svg width="80" height="80" viewBox="0 0 80 80" fill="none" xmlns="http://www.w3.org/2000/svg">
<path d="M23.3333 10C19.7971 10 16.4057 11.4048 13.9052 13.9052C11.4048 16.4057 10 19.7971 10 23.3333C10 26.8696 11.4048 30.2609 13.9052 32.7614C16.4057 35.2619 19.7971 36.6667 23.3333 36.6667C26.8696 36.6667 30.2609 35.2619 32.7614 32.7614C35.2619 30.2609 36.6667 26.8696 36.6667 23.3333C36.6667 19.7971 35.2619 16.4057 32.7614 13.9052C30.2609 11.4048 26.8696 10 23.3333 10ZM56.6667 10C53.1304 10 49.7391 11.4048 47.2386 13.9052C44.7381 16.4057 43.3333 19.7971 43.3333 23.3333C43.3333 26.8696 44.7381 30.2609 47.2386 32.7614C49.7391 35.2619 53.1304 36.6667 56.6667 36.6667C60.2029 36.6667 63.5943 35.2619 66.0948 32.7614C68.5952 30.2609 70 26.8696 70 23.3333C70 19.7971 68.5952 16.4057 66.0948 13.9052C63.5943 11.4048 60.2029 10 56.6667 10ZM23.3333 43.3333C19.7971 43.3333 16.4057 44.7381 13.9052 47.2386C11.4048 49.7391 10 53.1304 10 56.6667C10 60.2029 11.4048 63.5943 13.9052 66.0948C16.4057 68.5952 19.7971 70 23.3333 70C26.8696 70 30.2609 68.5952 32.7614 66.0948C35.2619 63.5943 36.6667 60.2029 36.6667 56.6667C36.6667 53.1304 35.2619 49.7391 32.7614 47.2386C30.2609 44.7381 26.8696 43.3333 23.3333 43.3333ZM56.6667 43.3333C53.1304 43.3333 49.7391 44.7381 47.2386 47.2386C44.7381 49.7391 43.3333 53.1304 43.3333 56.6667C43.3333 60.2029 44.7381 63.5943 47.2386 66.0948C49.7391 68.5952 53.1304 70 56.6667 70C60.2029 70 63.5943 68.5952 66.0948 66.0948C68.5952 63.5943 70 60.2029 70 56.6667C70 53.1304 68.5952 49.7391 66.0948 47.2386C63.5943 44.7381 60.2029 43.3333 56.6667 43.3333Z" fill="#77DDE7"/>
</svg>
