<svg width="64" height="64" viewBox="0 0 64 64" fill="none" xmlns="http://www.w3.org/2000/svg">
<path d="M8.36255 36.1874L5.58755 33.4124C4.41255 32.2374 4.41255 30.3374 5.58755 29.1749L29.875 4.8749C31.05 3.6999 32.95 3.6999 34.1125 4.8749L58.4001 29.1624C59.5751 30.3374 59.5751 32.2374 58.4001 33.3999L55.625 36.1749C54.4375 37.3624 52.5001 37.3374 51.3376 36.1249L37 21.0749V56.9999C37 58.6624 35.6625 59.9999 34 59.9999H30C28.3375 59.9999 27 58.6624 27 56.9999V21.0749L12.65 36.1374C11.4875 37.3624 9.55005 37.3874 8.36255 36.1874Z" fill="#77DDE7"/>
</svg>
